<svg viewBox="0 0 330 200" xmlns="http://www.w3.org/2000/svg"><g><g><g><g><g><line x1="60" y1="176.984375" x2="55" y2="176.984375" style="visibility: inherit;" fill="rgb(0, 0, 0)" stroke="rgb(204, 204, 204)" stroke-width="1px"></line><line x1="60" y1="164.34263392857144" x2="55" y2="164.34263392857144" style="visibility: inherit;" fill="rgb(0, 0, 0)" stroke="rgb(204, 204, 204)" stroke-width="1px"></line><line x1="60" y1="151.70089285714286" x2="55" y2="151.70089285714286" style="visibility: inherit;" fill="rgb(0, 0, 0)" stroke="rgb(204, 204, 204)" stroke-width="1px"></line><line x1="60" y1="139.0591517857143" x2="55" y2="139.0591517857143" style="visibility: inherit;" fill="rgb(0, 0, 0)" stroke="rgb(204, 204, 204)" stroke-width="1px"></line><line x1="60" y1="126.41741071428572" x2="55" y2="126.41741071428572" style="visibility: inherit;" fill="rgb(0, 0, 0)" stroke="rgb(204, 204, 204)" stroke-width="1px"></line><line x1="60" y1="113.77566964285715" x2="55" y2="113.77566964285715" style="visibility: inherit;" fill="rgb(0, 0, 0)" stroke="rgb(204, 204, 204)" stroke-width="1px"></line><line x1="60" y1="101.13392857142857" x2="55" y2="101.13392857142857" style="visibility: inherit;" fill="rgb(0, 0, 0)" stroke="rgb(204, 204, 204)" stroke-width="1px"></line><line x1="60" y1="88.4921875" x2="55" y2="88.4921875" style="visibility: inherit;" fill="rgb(0, 0, 0)" stroke="rgb(204, 204, 204)" stroke-width="1px"></line><line x1="60" y1="75.85044642857143" x2="55" y2="75.85044642857143" style="visibility: inherit;" fill="rgb(0, 0, 0)" stroke="rgb(204, 204, 204)" stroke-width="1px"></line><line x1="60" y1="63.20870535714287" x2="55" y2="63.20870535714287" style="visibility: inherit;" fill="rgb(0, 0, 0)" stroke="rgb(204, 204, 204)" stroke-width="1px"></line><line x1="60" y1="50.566964285714285" x2="55" y2="50.566964285714285" style="visibility: inherit;" fill="rgb(0, 0, 0)" stroke="rgb(204, 204, 204)" stroke-width="1px"></line><line x1="60" y1="37.925223214285694" x2="55" y2="37.925223214285694" style="visibility: inherit;" fill="rgb(0, 0, 0)" stroke="rgb(204, 204, 204)" stroke-width="1px"></line><line x1="60" y1="25.28348214285717" x2="55" y2="25.28348214285717" style="visibility: inherit;" fill="rgb(0, 0, 0)" stroke="rgb(204, 204, 204)" stroke-width="1px"></line><line x1="60" y1="12.641741071428585" x2="55" y2="12.641741071428585" style="visibility: inherit;" fill="rgb(0, 0, 0)" stroke="rgb(204, 204, 204)" stroke-width="1px"></line><line x1="60" y1="0" x2="55" y2="0" style="visibility: inherit;" fill="rgb(0, 0, 0)" stroke="rgb(204, 204, 204)" stroke-width="1px"></line></g><g transform="translate(50, 0)"><text x="0" y="176.984375" dx="0em" dy="0.3em" style="text-anchor: end; visibility: hidden; font-family: Roboto, sans-serif; font-size: 12px; font-weight: 200;" fill="rgb(255, 255, 255)" stroke="none" stroke-width="1px">0.012</text><text x="0" y="164.34263392857144" dx="0em" dy="0.3em" style="text-anchor: end; visibility: inherit; font-family: Roboto, sans-serif; font-size: 12px; font-weight: 200;" fill="rgb(255, 255, 255)" stroke="none" stroke-width="1px">0.014</text><text x="0" y="151.70089285714286" dx="0em" dy="0.3em" style="text-anchor: end; visibility: hidden; font-family: Roboto, sans-serif; font-size: 12px; font-weight: 200;" fill="rgb(255, 255, 255)" stroke="none" stroke-width="1px">0.016</text><text x="0" y="139.0591517857143" dx="0em" dy="0.3em" style="text-anchor: end; visibility: inherit; font-family: Roboto, sans-serif; font-size: 12px; font-weight: 200;" fill="rgb(255, 255, 255)" stroke="none" stroke-width="1px">0.018</text><text x="0" y="126.41741071428572" dx="0em" dy="0.3em" style="text-anchor: end; visibility: hidden; font-family: Roboto, sans-serif; font-size: 12px; font-weight: 200;" fill="rgb(255, 255, 255)" stroke="none" stroke-width="1px">0.02</text><text x="0" y="113.77566964285715" dx="0em" dy="0.3em" style="text-anchor: end; visibility: inherit; font-family: Roboto, sans-serif; font-size: 12px; font-weight: 200;" fill="rgb(255, 255, 255)" stroke="none" stroke-width="1px">0.022</text><text x="0" y="101.13392857142857" dx="0em" dy="0.3em" style="text-anchor: end; visibility: hidden; font-family: Roboto, sans-serif; font-size: 12px; font-weight: 200;" fill="rgb(255, 255, 255)" stroke="none" stroke-width="1px">0.024</text><text x="0" y="88.4921875" dx="0em" dy="0.3em" style="text-anchor: end; visibility: inherit; font-family: Roboto, sans-serif; font-size: 12px; font-weight: 200;" fill="rgb(255, 255, 255)" stroke="none" stroke-width="1px">0.026</text><text x="0" y="75.85044642857143" dx="0em" dy="0.3em" style="text-anchor: end; visibility: hidden; font-family: Roboto, sans-serif; font-size: 12px; font-weight: 200;" fill="rgb(255, 255, 255)" stroke="none" stroke-width="1px">0.028</text><text x="0" y="63.20870535714287" dx="0em" dy="0.3em" style="text-anchor: end; visibility: inherit; font-family: Roboto, sans-serif; font-size: 12px; font-weight: 200;" fill="rgb(255, 255, 255)" stroke="none" stroke-width="1px">0.03</text><text x="0" y="50.566964285714285" dx="0em" dy="0.3em" style="text-anchor: end; visibility: hidden; font-family: Roboto, sans-serif; font-size: 12px; font-weight: 200;" fill="rgb(255, 255, 255)" stroke="none" stroke-width="1px">0.032</text><text x="0" y="37.925223214285694" dx="0em" dy="0.3em" style="text-anchor: end; visibility: inherit; font-family: Roboto, sans-serif; font-size: 12px; font-weight: 200;" fill="rgb(255, 255, 255)" stroke="none" stroke-width="1px">0.034</text><text x="0" y="25.28348214285717" dx="0em" dy="0.3em" style="text-anchor: end; visibility: hidden; font-family: Roboto, sans-serif; font-size: 12px; font-weight: 200;" fill="rgb(255, 255, 255)" stroke="none" stroke-width="1px">0.036</text><text x="0" y="12.641741071428585" dx="0em" dy="0.3em" style="text-anchor: end; visibility: inherit; font-family: Roboto, sans-serif; font-size: 12px; font-weight: 200;" fill="rgb(255, 255, 255)" stroke="none" stroke-width="1px">0.038</text><text x="0" y="0" dx="0em" dy="0.3em" style="text-anchor: end; visibility: hidden; font-family: Roboto, sans-serif; font-size: 12px; font-weight: 200;" fill="rgb(255, 255, 255)" stroke="none" stroke-width="1px">0.04</text></g><line x1="60" y1="0" x2="60" y2="176.984375" fill="rgb(0, 0, 0)" stroke="rgb(204, 204, 204)" stroke-width="1px"></line></g></g><g transform="translate(60, 0)" clip-path="url(#clip_0)"><clipPath id="clip_0"><rect width="270" height="176"></rect></clipPath><g><g><g><line x1="0" y1="0" x2="0" y2="176.984375" fill="rgb(0, 0, 0)" stroke="rgb(189, 189, 189)" stroke-width="1px" opacity="0.25"></line><line x1="20.76923076923077" y1="0" x2="20.76923076923077" y2="176.984375" fill="rgb(0, 0, 0)" stroke="rgb(189, 189, 189)" stroke-width="1px" opacity="0.25"></line><line x1="41.53846153846154" y1="0" x2="41.53846153846154" y2="176.984375" fill="rgb(0, 0, 0)" stroke="rgb(189, 189, 189)" stroke-width="1px" opacity="0.25"></line><line x1="62.307692307692314" y1="0" x2="62.307692307692314" y2="176.984375" fill="rgb(0, 0, 0)" stroke="rgb(189, 189, 189)" stroke-width="1px" opacity="0.25"></line><line x1="83.07692307692308" y1="0" x2="83.07692307692308" y2="176.984375" fill="rgb(0, 0, 0)" stroke="rgb(189, 189, 189)" stroke-width="1px" opacity="0.25"></line><line x1="103.84615384615385" y1="0" x2="103.84615384615385" y2="176.984375" fill="rgb(0, 0, 0)" stroke="rgb(189, 189, 189)" stroke-width="1px" opacity="0.25"></line><line x1="124.61538461538463" y1="0" x2="124.61538461538463" y2="176.984375" fill="rgb(0, 0, 0)" stroke="rgb(189, 189, 189)" stroke-width="1px" opacity="0.25"></line><line x1="145.3846153846154" y1="0" x2="145.3846153846154" y2="176.984375" fill="rgb(0, 0, 0)" stroke="rgb(189, 189, 189)" stroke-width="1px" opacity="0.25"></line><line x1="166.15384615384616" y1="0" x2="166.15384615384616" y2="176.984375" fill="rgb(0, 0, 0)" stroke="rgb(189, 189, 189)" stroke-width="1px" opacity="0.25"></line><line x1="186.9230769230769" y1="0" x2="186.9230769230769" y2="176.984375" fill="rgb(0, 0, 0)" stroke="rgb(189, 189, 189)" stroke-width="1px" opacity="0.25"></line><line x1="207.6923076923077" y1="0" x2="207.6923076923077" y2="176.984375" fill="rgb(0, 0, 0)" stroke="rgb(189, 189, 189)" stroke-width="1px" opacity="0.25"></line><line x1="228.46153846153845" y1="0" x2="228.46153846153845" y2="176.984375" fill="rgb(0, 0, 0)" stroke="rgb(189, 189, 189)" stroke-width="1px" opacity="0.25"></line><line x1="249.23076923076925" y1="0" x2="249.23076923076925" y2="176.984375" fill="rgb(0, 0, 0)" stroke="rgb(189, 189, 189)" stroke-width="1px" opacity="0.25"></line><line x1="270" y1="0" x2="270" y2="176.984375" fill="rgb(0, 0, 0)" stroke="rgb(189, 189, 189)" stroke-width="1px" opacity="0.25"></line></g><g><line x1="0" y1="176.984375" x2="270" y2="176.984375" fill="rgb(0, 0, 0)" stroke="rgb(189, 189, 189)" stroke-width="1px" opacity="0.25"></line><line x1="0" y1="164.34263392857144" x2="270" y2="164.34263392857144" fill="rgb(0, 0, 0)" stroke="rgb(189, 189, 189)" stroke-width="1px" opacity="0.25"></line><line x1="0" y1="151.70089285714286" x2="270" y2="151.70089285714286" fill="rgb(0, 0, 0)" stroke="rgb(189, 189, 189)" stroke-width="1px" opacity="0.25"></line><line x1="0" y1="139.0591517857143" x2="270" y2="139.0591517857143" fill="rgb(0, 0, 0)" stroke="rgb(189, 189, 189)" stroke-width="1px" opacity="0.25"></line><line x1="0" y1="126.41741071428572" x2="270" y2="126.41741071428572" fill="rgb(0, 0, 0)" stroke="rgb(189, 189, 189)" stroke-width="1px" opacity="0.25"></line><line x1="0" y1="113.77566964285715" x2="270" y2="113.77566964285715" fill="rgb(0, 0, 0)" stroke="rgb(189, 189, 189)" stroke-width="1px" opacity="0.25"></line><line x1="0" y1="101.13392857142857" x2="270" y2="101.13392857142857" fill="rgb(0, 0, 0)" stroke="rgb(189, 189, 189)" stroke-width="1px" opacity="0.25"></line><line x1="0" y1="88.4921875" x2="270" y2="88.4921875" fill="rgb(0, 0, 0)" stroke="rgb(189, 189, 189)" stroke-width="1px" opacity="0.25"></line><line x1="0" y1="75.85044642857143" x2="270" y2="75.85044642857143" fill="rgb(0, 0, 0)" stroke="rgb(189, 189, 189)" stroke-width="1px" opacity="0.25"></line><line x1="0" y1="63.20870535714287" x2="270" y2="63.20870535714287" fill="rgb(0, 0, 0)" stroke="rgb(189, 189, 189)" stroke-width="1px" opacity="0.25"></line><line x1="0" y1="50.566964285714285" x2="270" y2="50.566964285714285" fill="rgb(0, 0, 0)" stroke="rgb(189, 189, 189)" stroke-width="1px" opacity="0.25"></line><line x1="0" y1="37.925223214285694" x2="270" y2="37.925223214285694" fill="rgb(0, 0, 0)" stroke="rgb(189, 189, 189)" stroke-width="1px" opacity="0.25"></line><line x1="0" y1="25.28348214285717" x2="270" y2="25.28348214285717" fill="rgb(0, 0, 0)" stroke="rgb(189, 189, 189)" stroke-width="1px" opacity="0.25"></line><line x1="0" y1="12.641741071428585" x2="270" y2="12.641741071428585" fill="rgb(0, 0, 0)" stroke="rgb(189, 189, 189)" stroke-width="1px" opacity="0.25"></line><line x1="0" y1="0" x2="270" y2="0" fill="rgb(0, 0, 0)" stroke="rgb(189, 189, 189)" stroke-width="1px" opacity="0.25"></line></g></g></g><g><g><line x1="0" y1="252.83482142857144" x2="270" y2="252.83482142857144" fill="rgb(0, 0, 0)" stroke="rgb(153, 153, 153)" stroke-width="1.5px"></line></g></g><g><g><line x1="20.76923076923077" y1="0" x2="20.76923076923077" y2="176.984375" fill="rgb(0, 0, 0)" stroke="rgb(153, 153, 153)" stroke-width="1.5px"></line></g></g><g><g><g><g><g><path stroke="rgb(255, 112, 67)" stroke-width="2px" d="M30.323076923076922,-0.5738092469800854L30.73846153846154,4.130569636028804L31.153846153846157,5.212368820946101L31.569230769230767,10.108072769344773L31.984615384615385,11.275249800605103L32.4,14.244769435539556L32.815384615384616,18.683815914573348L33.23076923076923,24.31833847960917L33.646153846153844,28.828152842799344L34.06153846153846,34.43826258064768L34.47692307692308,37.50926452240148L34.892307692307696,40.376361323482975L35.30769230769231,44.09634083732599L35.723076923076924,45.40797685583315L36.138461538461534,46.862668817875345L36.55384615384615,48.579373582413034L36.96923076923077,50.935643206302075L37.38461538461539,52.723148905343784L37.800000000000004,55.6544680559937L38.215384615384615,57.02366372624672L38.63076923076923,57.06787325598236L39.04615384615385,57.827961085001306L39.46153846153847,61.3485482078064L39.87692307692308,63.44694177369702L40.29230769230769,63.405105478223405L40.707692307692305,64.73441748112569L41.12307692307692,66.10828644328035L41.53846153846154,66.81791000516414L41.95384615384615,68.31928639443147L42.36923076923077,69.0452704667656L42.784615384615385,70.87799379866958L43.2,72.67436227941873L43.61538461538462,73.27494532560385L44.03076923076923,75.27602726987999L44.44615384615384,77.27403699983013L44.86153846153846,79.90602630223799L45.276923076923076,81.61787940994175L45.69230769230769,81.36522173065627L46.107692307692304,82.2087831390197L46.52307692307692,81.90121303932449L46.93846153846154,81.8559566534269L47.353846153846156,81.26183628540024L47.769230769230774,83.36491755113538L48.184615384615384,85.91635498587856L48.6,86.43321905922662L49.01538461538461,87.98349615306212L49.43076923076923,89.38345486566301L49.84615384615385,89.5637304553982L50.26153846153846,90.31476399593578L50.676923076923075,91.07928550345525L51.09230769230769,92.04802811061387L51.50769230769231,90.95349408791854L51.92307692307693,89.37361049367932L52.33846153846154,91.33707869737539L52.753846153846155,92.4347463493004L53.16923076923077,94.00772706110105L53.58461538461539,95.33408956873757L54,96.62476774852202L54.41538461538461,95.70722764586398L54.83076923076923,97.15497452839591L55.246153846153845,96.92651721443744L55.66153846153846,98.85112605039352L56.07692307692308,97.61441717641755L56.49230769230769,98.41955730070956L56.90769230769231,101.0512557010117L57.323076923076925,101.47607234374591L57.73846153846154,102.28071595208716L58.15384615384616,102.91642625840632L58.569230769230764,101.01528821035468L58.98461538461538,102.26362595157858L59.4,99.72703420575738L59.815384615384616,102.5946641578128L60.23076923076923,104.23083527437811L60.646153846153844,104.0536025842556L61.06153846153846,106.25347317743604L61.47692307692308,107.66485238307105L61.892307692307696,108.63476519092463L62.307692307692314,109.75630828902437L62.723076923076924,109.1624013684565L63.138461538461534,105.64427806944104L63.55384615384615,107.87103952679226L63.96923076923077,107.03498680136244L64.38461538461539,108.51714936687088L64.8,108.98280201272246L65.21538461538461,108.4197639301606L65.63076923076923,110.92620672238448L66.04615384615384,112.82621901385227L66.46153846153847,112.97911876395084L66.87692307692308,113.62183197533476L67.29230769230769,112.91576086772385L67.7076923076923,112.04131411030251L68.12307692307692,111.12050414913175L68.53846153846153,114.863753939158L68.95384615384616,113.79107758204233L69.36923076923077,114.27520254048709L69.78461538461539,114.15322219341613L70.2,113.30786408549584L70.61538461538461,113.91695966078083L71.03076923076924,115.32879262526588L71.44615384615385,116.5562577686262L71.86153846153846,117.40627615382166L72.27692307692307,119.07000451258574L72.6923076923077,118.4798498555565L73.1076923076923,117.52353584014155L73.52307692307693,117.15402303922141L73.93846153846154,116.08668799544694L74.35384615384616,117.35264425027522L74.76923076923077,119.35531532829388L75.18461538461538,118.93501410185682L75.60000000000001,117.77158029726539L76.0153846153846,119.27177157999647L76.43076923076923,120.32142913059404L76.84615384615384,120.89426328003371L77.26153846153846,122.13262085807463L77.67692307692307,122.64768085525078L78.0923076923077,122.20036117125164L78.50769230769231,122.7740269870976L78.92307692307693,122.84140232193027L79.33846153846154,122.43839366529038L79.75384615384615,121.44528128245722L80.16923076923077,121.99042517728552L80.58461538461538,120.68604281797874L81,122.82855383717099L81.41538461538461,124.36484153544211L81.83076923076923,124.41484953495255L82.24615384615385,124.53087651885595L82.66153846153847,124.97256950252235L83.07692307692308,126.22813079084621L83.4923076923077,125.06644024874413L83.9076923076923,124.83242269316274L84.32307692307691,124.80074314572998L84.73846153846154,124.64336336996497L85.15384615384615,124.52001969310938L85.56923076923077,124.79805171721081L85.98461538461538,124.90069101673471L86.4,125.12928459963433L86.81538461538462,126.39268334677857L87.23076923076924,128.06837105009342L87.64615384615385,128.15529223167292L88.06153846153846,127.09374822620647L88.47692307692307,127.86431071619509L88.89230769230768,127.22423054598501L89.3076923076923,127.72988522709124L89.72307692307692,126.69367536745101L90.13846153846154,127.38710083450323L90.55384615384615,128.92881474461248L90.96923076923078,129.50706527761793L91.38461538461539,129.42892962281346L91.80000000000001,129.4519029905897L92.21538461538461,130.2673755275185L92.63076923076923,129.69005178121517L93.04615384615384,128.86180426394353L93.46153846153845,130.37422679012778L93.87692307692308,130.66727582664697L94.29230769230769,130.76610630453007L94.70769230769231,130.1291504700371L95.12307692307692,129.84824824104697L95.53846153846155,131.92957837283888L95.95384615384616,130.98674161525742L96.36923076923077,130.16033102600096L96.78461538461538,131.20383720074898L97.2,132.2712837826389L97.61538461538461,132.9138238746091L98.03076923076922,133.96081830785843L98.44615384615385,135.21583346635472L98.86153846153846,134.06991673807676L99.27692307692308,133.34565209758426L99.6923076923077,134.30429854923383L100.10769230769232,132.60696737172063L100.52307692307691,133.37094116346552L100.93846153846154,133.6184048448611L101.35384615384615,134.68818130576776L101.76923076923077,134.89816552108428L102.18461538461538,137.3397992168486L102.6,135.6618709156888L103.01538461538462,134.91982076349134L103.43076923076923,135.05018485792456L103.84615384615385,135.94667839236857L104.26153846153846,134.83789911406257L104.67692307692307,136.20480557365588L105.09230769230768,136.89232759847704L105.50769230769231,137.0768297507349L105.92307692307692,136.3597241072589L106.33846153846154,137.3808649143234L106.75384615384615,137.0496836272399L107.16923076923078,136.29744428102848L107.58461538461539,136.82098265534992L108,136.44827509920935L108.41538461538461,138.26954943288266L108.83076923076922,138.13473423215902L109.24615384615385,139.03136907588936L109.66153846153846,140.03569514625414L110.07692307692308,137.8186271334768L110.49230769230769,137.996378856052L110.90769230769232,137.81153119610926L111.32307692307693,136.76245993103657L111.73846153846155,136.6904565608499L112.15384615384616,137.8854681999478L112.56923076923076,138.34298638732307L112.98461538461538,138.8437282033101L113.39999999999999,139.6997901379465L113.81538461538462,139.49130906737687L114.23076923076923,139.91478256560498L114.64615384615385,138.5474808270026L115.06153846153846,138.80350263661856L115.47692307692309,138.50820010516367L115.8923076923077,138.48978240287087L116.30769230769232,138.25571740874503L116.72307692307692,138.69782369535372L117.13846153846153,140.51348828447038L117.55384615384615,141.25917505439483L117.96923076923076,140.60902485956478L118.38461538461539,140.489551887664L118.8,140.28108313025407L119.21538461538462,139.56734848077258L119.63076923076923,140.97241722778367L120.04615384615386,140.7507161360823L120.46153846153847,141.02959509216592L120.87692307692306,143.02109102695894L121.29230769230769,142.88356777822452L121.7076923076923,141.55146221983676L122.12307692307692,140.80825976735545L122.53846153846153,141.86212702424297L122.95384615384616,142.28972437557067L123.36923076923077,142.55720863041287L123.78461538461539,143.16840908786227L124.2,142.69045801046352L124.61538461538463,142.99683354148203L125.03076923076922,143.64129150317348L125.44615384615385,144.86174475391988L125.86153846153846,144.35823781099032L126.27692307692307,143.42632466782L126.6923076923077,144.4143422305954L127.1076923076923,144.7554297983975L127.52307692307693,144.8905431092608L127.93846153846154,144.25818173609284L128.35384615384615,144.60283755099138L128.76923076923077,144.33596273464408L129.18461538461537,142.99950119436514L129.6,144.24069117491157L130.01538461538462,142.49569728900548L130.43076923076922,143.07797506602532L130.84615384615384,144.7895119197941L131.26153846153846,144.20663806615246L131.6769230769231,143.00312968303518L132.09230769230768,142.63339725188274L132.5076923076923,142.1144831517077L132.92307692307693,143.38115623087808L133.33846153846153,143.7353214850719L133.75384615384615,143.01339253500188L134.16923076923078,144.69795572476474L134.58461538461538,145.76384089455962L135,146.00684391764455L135.4153846153846,144.94816561377647L135.83076923076922,146.0082351987689L136.24615384615385,145.52690689123142L136.66153846153847,145.9945691961555L137.07692307692307,147.15498429913035L137.4923076923077,146.34660806278248L137.90769230769232,147.14219014084696L138.32307692307694,146.6601466733382L138.73846153846154,147.8665885826145L139.15384615384613,146.95322070735932L139.56923076923078,148.01529735070352L139.98461538461538,148.6195067867186L140.4,147.65417035295718L140.8153846153846,148.35587300575233L141.23076923076923,147.70099094269892L141.64615384615385,146.92199794739795L142.06153846153848,146.86977480511993L142.47692307692307,147.69653410590172L142.8923076923077,148.74830542914123L143.30769230769232,149.61096315094335L143.72307692307692,149.95685720296458L144.13846153846154,148.20600202081704L144.55384615384614,147.71747759579418L144.96923076923076,148.7363072116362L145.3846153846154,149.71759550338288L145.8,149.65369528858662L146.2153846153846,149.3324323119137L146.63076923076923,149.36141735646518L147.04615384615386,148.1669439019151L147.46153846153845,148.36079235733706L147.87692307692308,148.36440040737654L148.29230769230767,147.53307403801648L148.70769230769233,147.12005551098963L149.12307692307692,148.65049615443158L149.53846153846155,148.80298131770257L149.95384615384614,150.0488443520716L150.36923076923077,150.13153398134799L150.7846153846154,150.42001402436122L151.20000000000002,151.94953616960206L151.6153846153846,150.8207258410287L152.0307692307692,151.05953399178574L152.44615384615386,150.1565657077299L152.86153846153846,150.0481639926646L153.27692307692308,150.29193346862698L153.69230769230768,150.2332084241295L154.1076923076923,149.4168744458953L154.52307692307693,148.72593492137352L154.93846153846155,150.08454150695417L155.35384615384615,150.38141544080392L155.76923076923075,151.14332366048419L156.1846153846154,150.86768353474972L156.6,151.30976225999902L157.01538461538462,150.5875298265391L157.43076923076922,150.17129025427764L157.84615384615387,151.64347837017294L158.26153846153846,153.02822861370996L158.6769230769231,152.79618015610686L159.09230769230768,153.15051195805935L159.5076923076923,152.78362687624565L159.92307692307693,152.83821487308728L160.33846153846153,153.8525087668098L160.75384615384615,153.7862211471891L161.16923076923075,152.90506910500858L161.5846153846154,154.06206372227268L162,153.38323745696945L162.41538461538462,153.69113002417646L162.83076923076922,153.23412528282535L163.24615384615387,153.74963726527514L163.66153846153847,154.5092776060461L164.07692307692307,154.091867883441L164.4923076923077,154.46797682115456L164.9076923076923,155.60235687753746L165.32307692307694,155.09232692824892L165.73846153846154,153.28234297871825L166.15384615384616,151.6467214311031L166.56923076923076,152.47421146318192L166.9846153846154,152.84409755513502L167.4,152.36298411187985L167.8153846153846,153.38284599051826L168.23076923076923,153.4839940368151L168.64615384615382,154.5692397617248L169.06153846153848,153.27787102308528L169.47692307692307,152.33527214198378L169.8923076923077,152.7304477110983L170.3076923076923,152.91622042321472L170.72307692307695,154.61445803853536L171.13846153846154,154.5662564658959L171.55384615384617,155.1854970920721L171.96923076923076,154.9773642187556L172.38461538461536,154.56033354722598L172.8,155.48449032320764L173.2153846153846,154.0479871369666L173.63076923076923,154.70218736901816L174.04615384615383,155.2725680048314L174.46153846153848,155.5170972062985L174.87692307692308,155.57600061036982L175.2923076923077,155.46019867057115L175.7076923076923,156.38136661195782L176.12307692307692,157.02194036129296L176.53846153846155,156.45770471461935L176.95384615384614,156.8021839901793L177.36923076923077,156.57746083584144L177.78461538461536,156.80344116930655L178.20000000000002,156.69371355936042L178.6153846153846,157.28181230660087L179.03076923076924,157.9007276309949L179.44615384615383,156.8080937835821L179.8615384615385,154.08856266722222L180.27692307692308,156.08478464100168L180.69230769230768,156.3672782362882L181.1076923076923,156.86318869373858L181.5230769230769,156.08603221444028L181.93846153846155,156.62332184189924L182.35384615384615,157.69627520252342L182.76923076923077,157.1206641557123L183.18461538461537,156.9602080192667L183.60000000000002,157.84155955399788L184.01538461538462,158.3001413156425L184.43076923076922,157.4638706606272L184.84615384615384,157.3564629511397L185.26153846153846,156.8344727042513L185.6769230769231,157.6923406611875L186.09230769230768,156.84177832412246L186.5076923076923,156.69513966496763L186.9230769230769,157.1603173543164L187.33846153846156,157.01560247138957L187.75384615384615,158.58323831390393L188.16923076923078,160.12026494245393L188.58461538461538,159.1920126273752L189,158.46031837483108L189.41538461538462,158.9258062995694L189.83076923076922,157.02106756914011L190.24615384615385,158.25747757311396L190.66153846153844,158.2465235019238L191.0769230769231,157.42611460556924L191.4923076923077,157.5192260719162L191.90769230769232,158.74102179385838L192.3230769230769,159.06942385935287L192.73846153846154,158.45070955817778L193.15384615384616,158.34737372558186L193.56923076923076,159.13178606164135L193.98461538461538,159.56570002208917L194.4,159.70707207894125L194.81538461538463,160.98803976527125L195.23076923076923,160.4477607733902L195.64615384615385,160.15539135196673L196.06153846153845,159.7189691806418L196.47692307692307,157.72819760064567L196.8923076923077,158.90093179110488L197.3076923076923,159.045703608908L197.72307692307692,160.03129272299086L198.13846153846154,158.94272702819316L198.55384615384617,160.09373644701L198.96923076923076,160.92297787287558L199.3846153846154,160.19335029191123L199.8,160.78270433605513L200.21538461538464,161.55731260975543L200.63076923076923,160.28567603548626L201.04615384615383,161.3248696815103L201.46153846153845,160.57314705345297L201.87692307692308,160.76930490677788L202.2923076923077,161.01129757774612L202.7076923076923,161.01872393821043L203.12307692307692,160.90025223543697L203.53846153846155,160.52386957805408L203.95384615384617,159.88998325559805L204.36923076923077,161.4024008870235L204.78461538461536,162.1082531602827L205.2,161.89674693324176L205.6153846153846,161.49978176305333L206.03076923076924,161.24196204344364L206.44615384615383,161.2842014864768L206.86153846153846,161.35899166072647L207.27692307692308,160.89456602203757L207.6923076923077,159.02010870118923L208.1076923076923,160.31683446525915L208.52307692307693,161.13286784296062L208.93846153846155,160.7531862744551L209.35384615384615,160.9895255551304L209.76923076923077,161.1301870902679L210.18461538461537,160.81467221749514L210.6,160.10814702307525L211.01538461538462,160.89681692828142L211.43076923076924,161.4906646786296L211.84615384615384,160.7453798123542L212.26153846153846,159.76076568210172L212.6769230769231,160.9460944060001L213.09230769230768,160.9985268214979L213.5076923076923,161.47196727364297L213.9230769230769,161.38989096988993L214.33846153846156,162.59272101348097L214.75384615384615,161.8239125692825L215.16923076923078,162.26442641980225L215.58461538461538,161.77669522714885L216,163.17742812028544L216.41538461538462,163.94139165726358L216.83076923076922,163.01176373825817L217.24615384615385,161.68641583144895L217.66153846153844,161.93486066449717L218.0769230769231,162.74545445537976L218.4923076923077,164.16946007272284L218.90769230769232,164.90490596137423L219.3230769230769,164.95316334917916L219.73846153846154,164.92994452183652L220.15384615384616,166.20868892261743L220.56923076923078,165.99213630271854L220.98461538461538,166.52242475902136L221.39999999999998,165.4211705711485L221.81538461538463,165.02882884224297L222.23076923076923,163.8092313083349L222.64615384615385,164.01303115030518L223.06153846153845,164.75549634225027L223.4769230769231,164.37167092844587L223.8923076923077,164.03024995644662L224.30769230769232,163.19346915884287L224.72307692307692,163.07334134444702L225.1384615384615,163.2125831950738L225.55384615384617,163.56082571511718L225.96923076923076,163.20123174586578L226.3846153846154,163.81010815307377L226.79999999999998,166.04515673502996L227.21538461538464,165.0404589711795L227.63076923076923,164.03272005559052L228.04615384615386,164.1218560295953L228.46153846153845,165.14493563181406L228.87692307692308,165.62930978649692L229.2923076923077,165.4392089148381L229.7076923076923,165.23147811681378L230.12307692307692,165.13718004759568L230.53846153846152,164.36866237639637L230.95384615384617,164.9854145452706L231.36923076923077,165.15565947361083L231.7846153846154,164.49180115587507L232.2,165.18606586038027L232.61538461538464,165.91426790153037L233.03076923076924,164.4884810630313L233.44615384615383,164.05925580546946L233.86153846153846,164.75469678661074L234.27692307692305,164.8661036738356L234.6923076923077,166.7486064534382L235.1076923076923,167.1424927049195L235.52307692307693,165.9525473492553L235.93846153846152,166.56684724096345L236.35384615384618,166.46780340554346L236.76923076923077,167.55932058618703L237.1846153846154,166.731626823491L237.6,167.10577443452402L238.0153846153846,167.3055974372693L238.43076923076924,167.92915616646525L238.84615384615384,168.1586299322279L239.26153846153846,167.43538358267594L239.67692307692306,167.99879108593518L240.0923076923077,167.21833762433673L240.5076923076923,166.6612506797671L240.92307692307693,166.2342065439939L241.33846153846153,165.6171940929554L241.75384615384613,166.12498886266314L242.16923076923078,166.70029699773164L242.58461538461538,167.70688632502242L243,166.9436330139233L243.4153846153846,167.1636649709112L243.83076923076925,166.45438238005224L244.24615384615385,167.6432169545426L244.66153846153847,167.63627146056126L245.07692307692307,169.20975365962042L245.4923076923077,169.22987213366937L245.90769230769232,168.51676857606378L246.3230769230769,168.04189470090327L246.73846153846154,167.6068577555681L247.15384615384613,167.10309582864048L247.56923076923078,165.32292988869202L247.98461538461538,166.56243216426805L248.4,166.5183707550933L248.8153846153846,166.43735178351568L249.23076923076925,167.01407307851386L249.64615384615385,166.57467424168314L250.06153846153845,166.45193123361784L250.47692307692307,167.64947677228582L250.8923076923077,167.98770937205038L251.30769230769232,166.73763411864533L251.72307692307692,167.710867718698L252.13846153846154,167.7876909495923" style="fill: none;" fill="none"></path></g></g></g></g><g opacity="0.2"><g><g><g><path stroke="rgb(255, 112, 67)" stroke-width="2px" d="M29.07692307692308,-11.354771961424749L29.49230769230769,5.202402806608006L29.907692307692308,-4.214520953911606L30.323076923076922,10.527739254508312L30.73846153846154,11.187104523830529L31.153846153846157,6.835062984942603L31.569230769230767,17.45161616517831L31.984615384615385,13.026013555603909L32.4,18.699046152593983L32.815384615384616,25.342383179730465L33.23076923076923,32.77012045869405L33.646153846153844,35.59287349028248L34.06153846153846,42.853426517685875L34.47692307692308,42.1157672150626L34.892307692307696,44.67700640188664L35.30769230769231,49.67631001216693L35.723076923076924,47.37543086330075L36.138461538461534,49.044706747434766L36.55384615384615,51.154430719657945L36.96923076923077,54.47004763426127L37.38461538461539,55.40440745032226L37.800000000000004,60.05144677844198L38.215384615384615,59.077457230637926L38.63076923076923,57.1341875505667L39.04615384615385,58.968092828332125L39.46153846153847,66.62942889146507L39.87692307692308,66.5945321223366L40.29230769230769,63.34235103501539L40.707692307692305,66.72838548543432L41.12307692307692,68.1690898864846L41.53846153846154,67.88234534798124L41.95384615384615,70.57135097832155L42.36923076923077,70.1342465752636L42.784615384615385,73.6270787965207L43.2,75.36891500053962L43.61538461538462,74.17581989488099L44.03076923076923,78.2776501862931L44.44615384615384,80.27105159475468L44.86153846153846,83.85401025584933L45.276923076923076,84.18565907149708L45.69230769230769,80.98623521172807L46.107692307692304,83.47412525156481L46.52307692307692,81.4398578897817L46.93846153846154,81.78807207458054L47.353846153846156,80.37065573336025L47.769230769230774,86.51953944973815L48.184615384615384,89.7435111379933L48.6,87.20851516924864L49.01538461538461,90.30891179381537L49.43076923076923,91.48339293456435L49.84615384615385,89.83414384000103L50.26153846153846,91.44131430674211L50.676923076923075,92.22606776473445L51.09230769230769,93.50114202135177L51.50769230769231,89.31169305387552L51.92307692307693,87.00378510232052L52.33846153846154,94.2822810029195L52.753846153846155,94.08124782718787L53.16923076923077,96.36719812880204L53.58461538461539,97.32363333019227L54,98.56078501819866L54.41538461538461,94.33091749187692L54.83076923076923,99.3265948521938L55.246153846153845,96.58383124349972L55.66153846153846,101.73803930432769L56.07692307692308,95.75935386545358L56.49230769230769,99.62726748714758L56.90769230769231,104.99880330146492L57.323076923076925,102.11329730784722L57.73846153846154,103.487681364599L58.15384615384616,103.86999171788506L58.569230769230764,98.16358113827718L58.98461538461538,104.13613256341445L59.4,95.9221465870256L59.815384615384616,106.8961090858959L60.23076923076923,106.68509194922602L60.646153846153844,103.78775354907181L61.06153846153846,109.55327906720673L61.47692307692308,109.78192119152354L61.892307692307696,110.08963440270496L62.307692307692314,111.43862293617403L62.723076923076924,108.2715409876047L63.138461538461534,100.36709312091783L63.55384615384615,111.21118171281911L63.96923076923077,105.78090771321773L64.38461538461539,110.7403932151335L64.8,109.68128098149985L65.21538461538461,107.57520680631775L65.63076923076923,114.68587091072028L66.04615384615384,115.67623745105396L66.46153846153847,113.20846838909868L66.87692307692308,114.58590179241061L67.29230769230769,111.85665420630745L67.7076923076923,110.72964397417049L68.12307692307692,109.73928920737568L68.53846153846153,120.47862862419737L68.95384615384616,112.18206304636884L69.36923076923077,115.00138997815417L69.78461538461539,113.97025167280975L70.2,112.03982692361545L70.61538461538461,114.83060302370826L71.03076923076924,117.44654207199346L71.44615384615385,118.39745548366669L71.86153846153846,118.68130373161488L72.27692307692307,121.56559705073181L72.6923076923077,117.59461787001261L73.1076923076923,116.08906481701912L73.52307692307693,116.59975383784125L73.93846153846154,114.48568542978525L74.35384615384616,119.25157863251765L74.76923076923077,122.35932194532197L75.18461538461538,118.30456226220122L75.60000000000001,116.02642959037827L76.0153846153846,121.52205850409312L76.43076923076923,121.8959154564904L76.84615384615384,121.75351450419318L77.26153846153846,123.99015722513599L77.67692307692307,123.42027085101496L78.0923076923077,121.529381645253L78.50769230769231,123.63452571086654L78.92307692307693,122.94246532417934L79.33846153846154,121.8338806803305L79.75384615384615,119.95561270820744L80.16923076923077,122.80814101952795L80.58461538461538,118.72946927901855L81,126.04232036595931L81.41538461538461,126.66927308284879L81.83076923076923,124.48986153421824L82.24615384615385,124.70491699471107L82.66153846153847,125.63510897802189L83.07692307692308,128.11147272333204L83.4923076923077,123.32390443559106L83.9076923076923,124.48139635979065L84.32307692307691,124.75322382458089L84.73846153846154,124.40729370631743L85.15384615384615,124.33500417782592L85.56923076923077,125.2150997533629L85.98461538461538,125.05464996602053L86.4,125.47217497398378L86.81538461538462,128.28778146749494L87.23076923076924,130.5819026050657L87.64615384615385,128.2856740040422L88.06153846153846,125.50143221800681L88.47692307692307,129.02015445117806L88.89230769230768,126.2641102906699L89.3076923076923,128.48836724875062L89.72307692307692,125.13936057799062L90.13846153846154,128.42723903508158L90.55384615384615,131.24138560977633L90.96923076923078,130.3744410771261L91.38461538461539,129.31172614060677L91.80000000000001,129.48636304225408L92.21538461538461,131.49058433291168L92.63076923076923,128.82406616176013L93.04615384615384,127.61943298803611L93.46153846153845,132.64286057940419L93.87692307692308,131.10684938142575L94.29230769230769,130.91435202135472L94.70769230769231,129.17371671829773L95.12307692307692,129.4268948975618L95.53846153846155,135.05157357052667L95.95384615384616,129.57248647888525L96.36923076923077,128.92071514211628L96.78461538461538,132.76909646287095L97.2,133.8724536554738L97.61538461538461,133.8776340125644L98.03076923076922,135.53130995773245L98.44615384615385,137.0983562040991L98.86153846153846,132.35104164565982L99.27692307692308,132.2592551368455L99.6923076923077,135.74226822670815L100.10769230769232,130.06097060545082L100.52307692307691,134.51690185108288L100.93846153846154,133.98960036695436L101.35384615384615,136.29284599712784L101.76923076923077,135.21314184405907L102.18461538461538,141.00224976049503L102.6,133.1449784639491L103.01538461538462,133.80674553519515L103.43076923076923,135.24573099957445L103.84615384615385,137.29141869403455L104.26153846153846,133.1747301966035L104.67692307692307,138.25516526304585L105.09230769230768,137.92361063570883L105.50769230769231,137.3535829791217L105.92307692307692,135.28406564204488L106.33846153846154,138.91257612492024L106.75384615384615,136.55291169661461L107.16923076923078,135.1690852617113L107.58461538461539,137.6062902168321L108,135.88921376499846L108.41538461538461,141.0014609333926L108.83076923076922,137.93251143107358L109.24615384615385,140.37632134148487L109.66153846153846,141.5421842518013L110.07692307692308,134.49302511431077L110.49230769230769,138.2630064399148L110.90769230769232,137.53425970619512L111.32307692307693,135.18885303342748L111.73846153846155,136.58245150556988L112.15384615384616,139.67798565859474L112.56923076923076,139.02926366838594L112.98461538461538,139.59484092729065L113.39999999999999,140.98388303990112L113.81538461538462,139.1785874615224L114.23076923076923,140.5499928129471L114.64615384615385,136.49652821909902L115.06153846153846,139.1875353510425L115.47692307692309,138.06524630798128L115.8923076923077,138.46215584943172L116.30769230769232,137.90461991755626L116.72307692307692,139.36098312526676L117.13846153846153,143.23698516814537L117.55384615384615,142.3777052092815L117.96923076923076,139.63379956731973L118.38461538461539,140.3103424298128L118.8,139.9683799941392L119.21538461538462,138.49674650655027L119.63076923076923,143.0800203483003L120.04615384615386,140.41816449853025L120.46153846153847,141.4479135262913L120.87692307692306,146.00833492914848L121.29230769230769,142.67728290512292L121.7076923076923,139.55330388225514L122.12307692307692,139.69345608863347L122.53846153846153,143.44292790957428L122.95384615384616,142.93112040256216L123.36923076923077,142.9584350126762L123.78461538461539,144.08520977403634L124.2,141.97353139436538L124.61538461538463,143.45639683800982L125.03076923076922,144.60797844571061L125.44615384615385,146.69242463003945L125.86153846153846,143.60297739659603L126.27692307692307,142.02845495306454L126.6923076923077,145.89636857475853L127.1076923076923,145.26706115010063L127.52307692307693,145.09321307555572L127.93846153846154,143.309639676341L128.35384615384615,145.11982127333926L128.76923076923077,143.93565051012308L129.18461538461537,140.99480888394672L129.6,146.1024761457312L130.01538461538462,139.87820646014632L130.43076923076922,143.9513917315552L130.84615384615384,147.3568172004473L131.26153846153846,143.33232728569004L131.6769230769231,141.19786710835928L132.09230769230768,142.07879860515408L132.5076923076923,141.33611200144514L132.92307692307693,145.28116584963365L133.33846153846153,144.2665693663626L133.75384615384615,141.9304991098969L134.16923076923078,147.22480050940896L134.58461538461538,147.3626686492519L135,146.37134845227203L135.4153846153846,143.36014815797432L135.83076923076922,147.59833957625753L136.24615384615385,144.8049144299252L136.66153846153847,146.6960626535417L137.07692307692307,148.8956069535925L137.4923076923077,145.13404370826072L137.90769230769232,148.33556325794365L138.32307692307694,145.93708147207508L138.73846153846154,149.6762514465289L139.15384615384613,145.5831688944766L139.56923076923078,149.60841231571976L139.98461538461538,149.52582094074126L140.4,146.20616570231505L140.8153846153846,149.40842698494504L141.23076923076923,146.71866784811886L141.64615384615385,145.7535084544465L142.06153846153848,146.7914400917029L142.47692307692307,148.93667305707433L142.8923076923077,150.32596241400046L143.30769230769232,150.9049497336465L143.72307692307692,150.47569828099637L144.13846153846154,145.5797192475958L144.55384615384614,146.98469095825982L144.96923076923076,150.2645516353992L145.3846153846154,151.1895279410029L145.8,149.55784496639222L146.2153846153846,148.85053784690433L146.63076923076923,149.40489492329237L147.04615384615386,146.37523372008997L147.46153846153845,148.65156504047002L147.87692307692308,148.3698124824358L148.29230769230767,146.28608448397634L148.70769230769233,146.50052772044936L149.12307692307692,150.94615711959443L149.53846153846155,149.03170906260908L149.95384615384614,151.91763890362512L150.36923076923077,150.25556842526254L150.7846153846154,150.85273408888108L151.20000000000002,154.2438193874633L151.6153846153846,149.12751034816858L152.0307692307692,151.41774621792138L152.44615384615386,148.8021132816461L152.86153846153846,149.88556142006667L153.27692307692308,150.65758768257052L153.69230769230768,150.14512085738326L154.1076923076923,148.19237347854403L154.52307692307693,147.68952563459086L154.93846153846155,152.12245138532515L155.35384615384615,150.8267263415785L155.76923076923075,152.28618599000453L156.1846153846154,150.45422334614807L156.6,151.972880347873L157.01538461538462,149.5041811763492L157.43076923076922,149.54693089588545L157.84615384615387,153.8517605440159L158.26153846153846,155.1053539790155L158.6769230769231,152.44810746970222L159.09230769230768,153.68200966098811L159.5076923076923,152.23329925352508L159.92307692307693,152.9200968683498L160.33846153846153,155.3739496073935L160.75384615384615,153.68678971775807L161.16923076923075,151.58334104173784L161.5846153846154,155.79755564816878L162,152.36499805901465L162.41538461538462,154.15296887498698L162.83076923076922,152.54861817079862L163.24615384615387,154.5229052389498L163.66153846153847,155.64873811720256L164.07692307692307,153.4657532995334L164.4923076923077,155.03214022772488L164.9076923076923,157.3039269621118L165.32307692307694,154.32728200431615L165.73846153846154,150.56736705442225L166.15384615384616,149.19328910968034L166.56923076923076,153.71544651130014L166.9846153846154,153.3989266930647L167.4,151.64131394699714L167.8153846153846,154.9126388084759L168.23076923076923,153.63571610626033L168.64615384615382,156.19710834908932L169.06153846153848,151.34081791512602L169.47692307692307,150.9213738203315L169.8923076923077,153.32321106477008L170.3076923076923,153.1948794913894L170.72307692307695,157.16181446151626L171.13846153846154,154.49395410693666L171.55384615384617,156.11435803133645L171.96923076923076,154.66516490878087L172.38461538461536,153.93478753993156L172.8,156.8707254871801L173.2153846153846,151.8932323576051L173.63076923076923,155.6834877170955L174.04615384615383,156.12813895855132L174.46153846153848,155.88389100849912L174.87692307692308,155.66435571647682L175.2923076923077,155.28649576087315L175.7076923076923,157.76311852403785L176.12307692307692,157.98280098529565L176.53846153846155,155.61135124460895L176.95384615384614,157.3189029035192L177.36923076923077,156.24037610433464L177.78461538461536,157.1424116695042L178.20000000000002,156.5291221444412L178.6153846153846,158.16396042746157L179.03076923076924,158.82910061758594L179.44615384615383,155.16914301246288L179.8615384615385,150.00926599268234L180.27692307692308,159.07911760167087L180.69230769230768,156.79101862921794L181.1076923076923,157.6070543799142L181.5230769230769,154.92029749549278L181.93846153846155,157.42925628308774L182.35384615384615,159.30570524345967L182.76923076923077,156.2572475854956L183.18461538461537,156.7195238145983L183.60000000000002,159.1635868560947L184.01538461538462,158.9880139581094L184.43076923076922,156.20946467810427L184.84615384615384,157.19535138690844L185.26153846153846,156.05148733391877L185.6769230769231,158.97914259659177L186.09230769230768,155.5659348185249L186.5076923076923,156.47518167623537L186.9230769230769,157.85808388833954L187.33846153846156,156.79853014699933L187.75384615384615,160.93469207767546L188.16923076923078,162.42580488527892L188.58461538461538,157.79963415475711L189,157.36277699601487L189.41538461538462,159.62403818667684L189.83076923076922,154.16395947349622L190.24615384615385,160.11209257907467L190.66153846153844,158.2300923951386L191.0769230769231,156.19550126103735L191.4923076923077,157.65889327143668L191.90769230769232,160.57371537677162L192.3230769230769,159.56202695759464L192.73846153846154,157.52263810641514L193.15384615384616,158.19236997668798L193.56923076923076,160.3084045657306L193.98461538461538,160.21657096276093L194.4,159.91913016421938L194.81538461538463,162.90949129476627L195.23076923076923,159.6373422855686L195.64615384615385,159.71683721983158L196.06153846153845,159.0643359236544L196.47692307692307,154.74204023065147L196.8923076923077,160.6600330767937L197.3076923076923,159.26286133561268L197.72307692307692,161.50967639411516L198.13846153846154,157.3098784859966L198.55384615384617,161.82025057523526L198.96923076923076,162.16684001167388L199.3846153846154,159.0989089204647L199.8,161.666735402271L200.21538461538464,162.71922502030586L200.63076923076923,158.37822117408257L201.04615384615383,162.88366015054635L201.46153846153845,159.44556311136694L201.87692307692308,161.06354168676523L202.2923076923077,161.37428658419856L202.7076923076923,161.02986347890692L203.12307692307692,160.7225446812767L203.53846153846155,159.95929559197975L203.95384615384617,158.939153771914L204.36923076923077,163.67102733416166L204.78461538461536,163.1670315701714L205.2,161.57948759268038L205.6153846153846,160.90433400777067L206.03076923076924,160.85523246402903L206.44615384615383,161.34756065102658L206.86153846153846,161.47117692210097L207.27692307692308,160.1979275640042L207.6923076923077,156.2084227199167L208.1076923076923,162.261923111364L208.52307692307693,162.35691790951284L208.93846153846155,160.1836639216968L209.35384615384615,161.34403447614335L209.76923076923077,161.34117939297408L210.18461538461537,160.34139990833603L210.6,159.04835923144543L211.01538461538462,162.0798217860907L211.43076923076924,162.38143630415186L211.84615384615384,159.6274525129411L212.26153846153846,158.28384448672296L212.6769230769231,162.7240874918477L213.09230769230768,161.07717544474457L213.5076923076923,162.18212795186056L213.9230769230769,161.2667765142604L214.33846153846156,164.39696607886748L214.75384615384615,160.67069990298478L215.16923076923078,162.92519719558186L215.58461538461538,161.0450984381688L216,165.27852745999033L216.41538461538462,165.08733696273077L216.83076923076922,161.61732185975L217.24615384615385,159.69839397123516L217.66153846153844,162.3075279140695L218.0769230769231,163.96134514170365L218.4923076923077,166.30546849873747L218.90769230769232,166.00807479435127L219.3230769230769,165.0255494308866L219.73846153846154,164.89511628082255L220.15384615384616,168.1268055237888L220.56923076923078,165.6673073728702L220.98461538461538,167.3178574434756L221.39999999999998,163.7692892893392L221.81538461538463,164.4403162488847L222.23076923076923,161.97983500747276L222.64615384615385,164.31873091326062L223.06153846153845,165.86919413016793L223.4769230769231,163.79593280773926L223.8923076923077,163.51811849844773L224.30769230769232,161.93829796243725L224.72307692307692,162.89314962285323L225.1384615384615,163.4214459710139L225.55384615384617,164.08318949518227L225.96923076923076,162.66184079198865L226.3846153846154,164.7234227638858L226.79999999999998,169.3977296079642L227.21538461538464,163.53341232540384L227.63076923076923,162.52111168220705L228.04615384615386,164.25555999060245L228.46153846153845,166.6795550351422L228.87692307692308,166.3558710185212L229.2923076923077,165.1540576073499L229.7076923076923,164.91988191977725L230.12307692307692,164.99573294376853L230.53846153846152,163.2158858695974L230.95384615384617,165.91054279858196L231.36923076923077,165.41102686612118L231.7846153846154,163.4960136792714L232.2,166.22746291713804L232.61538461538464,167.0065709632555L233.03076923076924,162.34980080528268L233.44615384615383,163.41541791912667L233.86153846153846,165.79785825832266L234.27692307692305,165.0332140046729L234.6923076923077,169.5723606228421L235.1076923076923,167.73332208214146L235.52307692307693,164.16762931575897L235.93846153846152,167.48829707852565L236.35384615384618,166.3192376524135L236.76923076923077,169.19659635715237L237.1846153846154,165.490086179447L237.6,167.66699585107355L238.0153846153846,167.6053319413872L238.43076923076924,168.86449426025916L238.84615384615384,168.5028405808719L239.26153846153846,166.35051405834798L239.67692307692306,168.84390234082406L240.0923076923077,166.047657431939L240.5076923076923,165.8256202629127L240.92307692307693,165.59364034033413L241.33846153846153,164.69167541639763L241.75384615384613,166.88668101722476L242.16923076923078,167.56325920033436L242.58461538461538,169.21677031595857L243,165.79875304727466L243.4153846153846,167.49371290639309L243.83076923076925,165.39045849376373L244.24615384615385,169.42646881627817L244.66153846153847,167.62585321958926L245.07692307692307,171.56997695820922L245.4923076923077,169.26004984474275L245.90769230769232,167.4471132396554L246.3230769230769,167.3295838881625L246.73846153846154,166.9543023375653L247.15384615384613,166.347452938249L247.56923076923078,162.65268097876935L247.98461538461538,168.42168557763216L248.4,166.4522786413311L248.8153846153846,166.31582332614926L249.23076923076925,167.87915502101117L249.64615384615385,165.91557598643703L250.06153846153845,166.26781672151992L250.47692307692307,169.44579508028775L250.8923076923077,168.49505827169716L251.30769230769232,164.86252123853774L251.72307692307692,169.17071811877707L252.13846153846154,167.9029257959337" style="fill: none;" fill="none"></path></g></g></g></g></g></g><g transform="translate(60, 176)" clip-path="url(#clip_1)"><clipPath id="clip_1"><rect width="270" height="23"></rect></clipPath><g><g><line x1="0" y1="0" x2="0" y2="5" style="visibility: inherit;" fill="rgb(0, 0, 0)" stroke="rgb(204, 204, 204)" stroke-width="1px"></line><line x1="20.76923076923077" y1="0" x2="20.76923076923077" y2="5" style="visibility: inherit;" fill="rgb(0, 0, 0)" stroke="rgb(204, 204, 204)" stroke-width="1px"></line><line x1="41.53846153846154" y1="0" x2="41.53846153846154" y2="5" style="visibility: inherit;" fill="rgb(0, 0, 0)" stroke="rgb(204, 204, 204)" stroke-width="1px"></line><line x1="62.307692307692314" y1="0" x2="62.307692307692314" y2="5" style="visibility: inherit;" fill="rgb(0, 0, 0)" stroke="rgb(204, 204, 204)" stroke-width="1px"></line><line x1="83.07692307692308" y1="0" x2="83.07692307692308" y2="5" style="visibility: inherit;" fill="rgb(0, 0, 0)" stroke="rgb(204, 204, 204)" stroke-width="1px"></line><line x1="103.84615384615385" y1="0" x2="103.84615384615385" y2="5" style="visibility: inherit;" fill="rgb(0, 0, 0)" stroke="rgb(204, 204, 204)" stroke-width="1px"></line><line x1="124.61538461538463" y1="0" x2="124.61538461538463" y2="5" style="visibility: inherit;" fill="rgb(0, 0, 0)" stroke="rgb(204, 204, 204)" stroke-width="1px"></line><line x1="145.3846153846154" y1="0" x2="145.3846153846154" y2="5" style="visibility: inherit;" fill="rgb(0, 0, 0)" stroke="rgb(204, 204, 204)" stroke-width="1px"></line><line x1="166.15384615384616" y1="0" x2="166.15384615384616" y2="5" style="visibility: inherit;" fill="rgb(0, 0, 0)" stroke="rgb(204, 204, 204)" stroke-width="1px"></line><line x1="186.9230769230769" y1="0" x2="186.9230769230769" y2="5" style="visibility: inherit;" fill="rgb(0, 0, 0)" stroke="rgb(204, 204, 204)" stroke-width="1px"></line><line x1="207.6923076923077" y1="0" x2="207.6923076923077" y2="5" style="visibility: inherit;" fill="rgb(0, 0, 0)" stroke="rgb(204, 204, 204)" stroke-width="1px"></line><line x1="228.46153846153845" y1="0" x2="228.46153846153845" y2="5" style="visibility: inherit;" fill="rgb(0, 0, 0)" stroke="rgb(204, 204, 204)" stroke-width="1px"></line><line x1="249.23076923076925" y1="0" x2="249.23076923076925" y2="5" style="visibility: inherit;" fill="rgb(0, 0, 0)" stroke="rgb(204, 204, 204)" stroke-width="1px"></line><line x1="270" y1="0" x2="270" y2="5" style="visibility: inherit;" fill="rgb(0, 0, 0)" stroke="rgb(204, 204, 204)" stroke-width="1px"></line></g><g transform="translate(0, 8)"><text x="0" y="0" dx="0em" dy="0.95em" style="text-anchor: middle; visibility: hidden; font-family: Roboto, sans-serif; font-size: 12px; font-weight: 200;" fill="rgb(255, 255, 255)" stroke="none" stroke-width="1px">-50</text><text x="20.76923076923077" y="0" dx="0em" dy="0.95em" style="text-anchor: middle; visibility: inherit; font-family: Roboto, sans-serif; font-size: 12px; font-weight: 200;" fill="rgb(255, 255, 255)" stroke="none" stroke-width="1px">0</text><text x="41.53846153846154" y="0" dx="0em" dy="0.95em" style="text-anchor: middle; visibility: hidden; font-family: Roboto, sans-serif; font-size: 12px; font-weight: 200;" fill="rgb(255, 255, 255)" stroke="none" stroke-width="1px">50</text><text x="62.307692307692314" y="0" dx="0em" dy="0.95em" style="text-anchor: middle; visibility: inherit; font-family: Roboto, sans-serif; font-size: 12px; font-weight: 200;" fill="rgb(255, 255, 255)" stroke="none" stroke-width="1px">100</text><text x="83.07692307692308" y="0" dx="0em" dy="0.95em" style="text-anchor: middle; visibility: hidden; font-family: Roboto, sans-serif; font-size: 12px; font-weight: 200;" fill="rgb(255, 255, 255)" stroke="none" stroke-width="1px">150</text><text x="103.84615384615385" y="0" dx="0em" dy="0.95em" style="text-anchor: middle; visibility: inherit; font-family: Roboto, sans-serif; font-size: 12px; font-weight: 200;" fill="rgb(255, 255, 255)" stroke="none" stroke-width="1px">200</text><text x="124.61538461538463" y="0" dx="0em" dy="0.95em" style="text-anchor: middle; visibility: hidden; font-family: Roboto, sans-serif; font-size: 12px; font-weight: 200;" fill="rgb(255, 255, 255)" stroke="none" stroke-width="1px">250</text><text x="145.3846153846154" y="0" dx="0em" dy="0.95em" style="text-anchor: middle; visibility: inherit; font-family: Roboto, sans-serif; font-size: 12px; font-weight: 200;" fill="rgb(255, 255, 255)" stroke="none" stroke-width="1px">300</text><text x="166.15384615384616" y="0" dx="0em" dy="0.95em" style="text-anchor: middle; visibility: hidden; font-family: Roboto, sans-serif; font-size: 12px; font-weight: 200;" fill="rgb(255, 255, 255)" stroke="none" stroke-width="1px">350</text><text x="186.9230769230769" y="0" dx="0em" dy="0.95em" style="text-anchor: middle; visibility: inherit; font-family: Roboto, sans-serif; font-size: 12px; font-weight: 200;" fill="rgb(255, 255, 255)" stroke="none" stroke-width="1px">400</text><text x="207.6923076923077" y="0" dx="0em" dy="0.95em" style="text-anchor: middle; visibility: hidden; font-family: Roboto, sans-serif; font-size: 12px; font-weight: 200;" fill="rgb(255, 255, 255)" stroke="none" stroke-width="1px">450</text><text x="228.46153846153845" y="0" dx="0em" dy="0.95em" style="text-anchor: middle; visibility: inherit; font-family: Roboto, sans-serif; font-size: 12px; font-weight: 200;" fill="rgb(255, 255, 255)" stroke="none" stroke-width="1px">500</text><text x="249.23076923076925" y="0" dx="0em" dy="0.95em" style="text-anchor: middle; visibility: hidden; font-family: Roboto, sans-serif; font-size: 12px; font-weight: 200;" fill="rgb(255, 255, 255)" stroke="none" stroke-width="1px">550</text><text x="270" y="0" dx="0em" dy="0.95em" style="text-anchor: middle; visibility: hidden; font-family: Roboto, sans-serif; font-size: 12px; font-weight: 200;" fill="rgb(255, 255, 255)" stroke="none" stroke-width="1px">600</text></g><line x1="0" y1="0" x2="270" y2="0" fill="rgb(0, 0, 0)" stroke="rgb(204, 204, 204)" stroke-width="1px"></line></g></g></g></g></svg>