<svg viewBox="0 0 330 200" xmlns="http://www.w3.org/2000/svg"><g><g><g><g><g><line x1="70" y1="176.984375" x2="65" y2="176.984375" style="visibility: inherit;" fill="rgb(0, 0, 0)" stroke="rgb(204, 204, 204)" stroke-width="1px"></line><line x1="70" y1="163.37019230769232" x2="65" y2="163.37019230769232" style="visibility: inherit;" fill="rgb(0, 0, 0)" stroke="rgb(204, 204, 204)" stroke-width="1px"></line><line x1="70" y1="149.7560096153846" x2="65" y2="149.7560096153846" style="visibility: inherit;" fill="rgb(0, 0, 0)" stroke="rgb(204, 204, 204)" stroke-width="1px"></line><line x1="70" y1="136.14182692307693" x2="65" y2="136.14182692307693" style="visibility: inherit;" fill="rgb(0, 0, 0)" stroke="rgb(204, 204, 204)" stroke-width="1px"></line><line x1="70" y1="122.52764423076923" x2="65" y2="122.52764423076923" style="visibility: inherit;" fill="rgb(0, 0, 0)" stroke="rgb(204, 204, 204)" stroke-width="1px"></line><line x1="70" y1="108.91346153846155" x2="65" y2="108.91346153846155" style="visibility: inherit;" fill="rgb(0, 0, 0)" stroke="rgb(204, 204, 204)" stroke-width="1px"></line><line x1="70" y1="95.29927884615387" x2="65" y2="95.29927884615387" style="visibility: inherit;" fill="rgb(0, 0, 0)" stroke="rgb(204, 204, 204)" stroke-width="1px"></line><line x1="70" y1="81.68509615384616" x2="65" y2="81.68509615384616" style="visibility: inherit;" fill="rgb(0, 0, 0)" stroke="rgb(204, 204, 204)" stroke-width="1px"></line><line x1="70" y1="68.07091346153848" x2="65" y2="68.07091346153848" style="visibility: inherit;" fill="rgb(0, 0, 0)" stroke="rgb(204, 204, 204)" stroke-width="1px"></line><line x1="70" y1="54.456730769230774" x2="65" y2="54.456730769230774" style="visibility: inherit;" fill="rgb(0, 0, 0)" stroke="rgb(204, 204, 204)" stroke-width="1px"></line><line x1="70" y1="40.84254807692311" x2="65" y2="40.84254807692311" style="visibility: inherit;" fill="rgb(0, 0, 0)" stroke="rgb(204, 204, 204)" stroke-width="1px"></line><line x1="70" y1="27.228365384615405" x2="65" y2="27.228365384615405" style="visibility: inherit;" fill="rgb(0, 0, 0)" stroke="rgb(204, 204, 204)" stroke-width="1px"></line><line x1="70" y1="13.614182692307702" x2="65" y2="13.614182692307702" style="visibility: inherit;" fill="rgb(0, 0, 0)" stroke="rgb(204, 204, 204)" stroke-width="1px"></line><line x1="70" y1="0" x2="65" y2="0" style="visibility: inherit;" fill="rgb(0, 0, 0)" stroke="rgb(204, 204, 204)" stroke-width="1px"></line></g><g transform="translate(60, 0)"><text x="0" y="176.984375" dx="0em" dy="0.3em" style="text-anchor: end; visibility: hidden; font-family: Roboto, sans-serif; font-size: 12px; font-weight: 200;" fill="rgb(255, 255, 255)" stroke="none" stroke-width="1px">5e-4</text><text x="0" y="163.37019230769232" dx="0em" dy="0.3em" style="text-anchor: end; visibility: inherit; font-family: Roboto, sans-serif; font-size: 12px; font-weight: 200;" fill="rgb(255, 255, 255)" stroke="none" stroke-width="1px">1e-3</text><text x="0" y="149.7560096153846" dx="0em" dy="0.3em" style="text-anchor: end; visibility: hidden; font-family: Roboto, sans-serif; font-size: 12px; font-weight: 200;" fill="rgb(255, 255, 255)" stroke="none" stroke-width="1px">1.5e-3</text><text x="0" y="136.14182692307693" dx="0em" dy="0.3em" style="text-anchor: end; visibility: inherit; font-family: Roboto, sans-serif; font-size: 12px; font-weight: 200;" fill="rgb(255, 255, 255)" stroke="none" stroke-width="1px">2e-3</text><text x="0" y="122.52764423076923" dx="0em" dy="0.3em" style="text-anchor: end; visibility: hidden; font-family: Roboto, sans-serif; font-size: 12px; font-weight: 200;" fill="rgb(255, 255, 255)" stroke="none" stroke-width="1px">2.5e-3</text><text x="0" y="108.91346153846155" dx="0em" dy="0.3em" style="text-anchor: end; visibility: inherit; font-family: Roboto, sans-serif; font-size: 12px; font-weight: 200;" fill="rgb(255, 255, 255)" stroke="none" stroke-width="1px">3e-3</text><text x="0" y="95.29927884615387" dx="0em" dy="0.3em" style="text-anchor: end; visibility: hidden; font-family: Roboto, sans-serif; font-size: 12px; font-weight: 200;" fill="rgb(255, 255, 255)" stroke="none" stroke-width="1px">3.5e-3</text><text x="0" y="81.68509615384616" dx="0em" dy="0.3em" style="text-anchor: end; visibility: inherit; font-family: Roboto, sans-serif; font-size: 12px; font-weight: 200;" fill="rgb(255, 255, 255)" stroke="none" stroke-width="1px">4e-3</text><text x="0" y="68.07091346153848" dx="0em" dy="0.3em" style="text-anchor: end; visibility: hidden; font-family: Roboto, sans-serif; font-size: 12px; font-weight: 200;" fill="rgb(255, 255, 255)" stroke="none" stroke-width="1px">4.5e-3</text><text x="0" y="54.456730769230774" dx="0em" dy="0.3em" style="text-anchor: end; visibility: inherit; font-family: Roboto, sans-serif; font-size: 12px; font-weight: 200;" fill="rgb(255, 255, 255)" stroke="none" stroke-width="1px">5e-3</text><text x="0" y="40.84254807692311" dx="0em" dy="0.3em" style="text-anchor: end; visibility: hidden; font-family: Roboto, sans-serif; font-size: 12px; font-weight: 200;" fill="rgb(255, 255, 255)" stroke="none" stroke-width="1px">5.5e-3</text><text x="0" y="27.228365384615405" dx="0em" dy="0.3em" style="text-anchor: end; visibility: inherit; font-family: Roboto, sans-serif; font-size: 12px; font-weight: 200;" fill="rgb(255, 255, 255)" stroke="none" stroke-width="1px">6e-3</text><text x="0" y="13.614182692307702" dx="0em" dy="0.3em" style="text-anchor: end; visibility: hidden; font-family: Roboto, sans-serif; font-size: 12px; font-weight: 200;" fill="rgb(255, 255, 255)" stroke="none" stroke-width="1px">6.5e-3</text><text x="0" y="0" dx="0em" dy="0.3em" style="text-anchor: end; visibility: hidden; font-family: Roboto, sans-serif; font-size: 12px; font-weight: 200;" fill="rgb(255, 255, 255)" stroke="none" stroke-width="1px">7e-3</text></g><line x1="70" y1="0" x2="70" y2="176.984375" fill="rgb(0, 0, 0)" stroke="rgb(204, 204, 204)" stroke-width="1px"></line></g></g><g transform="translate(70, 0)" clip-path="url(#clip_0)"><clipPath id="clip_0"><rect width="260" height="176"></rect></clipPath><g><g><g><line x1="0" y1="0" x2="0" y2="176.984375" fill="rgb(0, 0, 0)" stroke="rgb(189, 189, 189)" stroke-width="1px" opacity="0.25"></line><line x1="20" y1="0" x2="20" y2="176.984375" fill="rgb(0, 0, 0)" stroke="rgb(189, 189, 189)" stroke-width="1px" opacity="0.25"></line><line x1="40" y1="0" x2="40" y2="176.984375" fill="rgb(0, 0, 0)" stroke="rgb(189, 189, 189)" stroke-width="1px" opacity="0.25"></line><line x1="60" y1="0" x2="60" y2="176.984375" fill="rgb(0, 0, 0)" stroke="rgb(189, 189, 189)" stroke-width="1px" opacity="0.25"></line><line x1="80" y1="0" x2="80" y2="176.984375" fill="rgb(0, 0, 0)" stroke="rgb(189, 189, 189)" stroke-width="1px" opacity="0.25"></line><line x1="100" y1="0" x2="100" y2="176.984375" fill="rgb(0, 0, 0)" stroke="rgb(189, 189, 189)" stroke-width="1px" opacity="0.25"></line><line x1="120" y1="0" x2="120" y2="176.984375" fill="rgb(0, 0, 0)" stroke="rgb(189, 189, 189)" stroke-width="1px" opacity="0.25"></line><line x1="140" y1="0" x2="140" y2="176.984375" fill="rgb(0, 0, 0)" stroke="rgb(189, 189, 189)" stroke-width="1px" opacity="0.25"></line><line x1="160" y1="0" x2="160" y2="176.984375" fill="rgb(0, 0, 0)" stroke="rgb(189, 189, 189)" stroke-width="1px" opacity="0.25"></line><line x1="180" y1="0" x2="180" y2="176.984375" fill="rgb(0, 0, 0)" stroke="rgb(189, 189, 189)" stroke-width="1px" opacity="0.25"></line><line x1="200" y1="0" x2="200" y2="176.984375" fill="rgb(0, 0, 0)" stroke="rgb(189, 189, 189)" stroke-width="1px" opacity="0.25"></line><line x1="220" y1="0" x2="220" y2="176.984375" fill="rgb(0, 0, 0)" stroke="rgb(189, 189, 189)" stroke-width="1px" opacity="0.25"></line><line x1="240" y1="0" x2="240" y2="176.984375" fill="rgb(0, 0, 0)" stroke="rgb(189, 189, 189)" stroke-width="1px" opacity="0.25"></line><line x1="260" y1="0" x2="260" y2="176.984375" fill="rgb(0, 0, 0)" stroke="rgb(189, 189, 189)" stroke-width="1px" opacity="0.25"></line></g><g><line x1="0" y1="176.984375" x2="260" y2="176.984375" fill="rgb(0, 0, 0)" stroke="rgb(189, 189, 189)" stroke-width="1px" opacity="0.25"></line><line x1="0" y1="163.37019230769232" x2="260" y2="163.37019230769232" fill="rgb(0, 0, 0)" stroke="rgb(189, 189, 189)" stroke-width="1px" opacity="0.25"></line><line x1="0" y1="149.7560096153846" x2="260" y2="149.7560096153846" fill="rgb(0, 0, 0)" stroke="rgb(189, 189, 189)" stroke-width="1px" opacity="0.25"></line><line x1="0" y1="136.14182692307693" x2="260" y2="136.14182692307693" fill="rgb(0, 0, 0)" stroke="rgb(189, 189, 189)" stroke-width="1px" opacity="0.25"></line><line x1="0" y1="122.52764423076923" x2="260" y2="122.52764423076923" fill="rgb(0, 0, 0)" stroke="rgb(189, 189, 189)" stroke-width="1px" opacity="0.25"></line><line x1="0" y1="108.91346153846155" x2="260" y2="108.91346153846155" fill="rgb(0, 0, 0)" stroke="rgb(189, 189, 189)" stroke-width="1px" opacity="0.25"></line><line x1="0" y1="95.29927884615387" x2="260" y2="95.29927884615387" fill="rgb(0, 0, 0)" stroke="rgb(189, 189, 189)" stroke-width="1px" opacity="0.25"></line><line x1="0" y1="81.68509615384616" x2="260" y2="81.68509615384616" fill="rgb(0, 0, 0)" stroke="rgb(189, 189, 189)" stroke-width="1px" opacity="0.25"></line><line x1="0" y1="68.07091346153848" x2="260" y2="68.07091346153848" fill="rgb(0, 0, 0)" stroke="rgb(189, 189, 189)" stroke-width="1px" opacity="0.25"></line><line x1="0" y1="54.456730769230774" x2="260" y2="54.456730769230774" fill="rgb(0, 0, 0)" stroke="rgb(189, 189, 189)" stroke-width="1px" opacity="0.25"></line><line x1="0" y1="40.84254807692311" x2="260" y2="40.84254807692311" fill="rgb(0, 0, 0)" stroke="rgb(189, 189, 189)" stroke-width="1px" opacity="0.25"></line><line x1="0" y1="27.228365384615405" x2="260" y2="27.228365384615405" fill="rgb(0, 0, 0)" stroke="rgb(189, 189, 189)" stroke-width="1px" opacity="0.25"></line><line x1="0" y1="13.614182692307702" x2="260" y2="13.614182692307702" fill="rgb(0, 0, 0)" stroke="rgb(189, 189, 189)" stroke-width="1px" opacity="0.25"></line><line x1="0" y1="0" x2="260" y2="0" fill="rgb(0, 0, 0)" stroke="rgb(189, 189, 189)" stroke-width="1px" opacity="0.25"></line></g></g></g><g><g><line x1="0" y1="190.59855769230768" x2="260" y2="190.59855769230768" fill="rgb(0, 0, 0)" stroke="rgb(153, 153, 153)" stroke-width="1.5px"></line></g></g><g><g><line x1="20" y1="0" x2="20" y2="176.984375" fill="rgb(0, 0, 0)" stroke="rgb(153, 153, 153)" stroke-width="1.5px"></line></g></g><g><g><g><g><g><path stroke="rgb(255, 112, 67)" stroke-width="2px" d="M30.8,-0.08364453774035739L31.2,8.121834503130314L31.6,18.492757906060177L32,22.60650130418416L32.4,30.599701877808613L32.8,29.580597525900362L33.199999999999996,29.04469788261792L33.6,29.31766531524304L34,34.515091578897696L34.400000000000006,39.305811502553695L34.8,43.29145829432483L35.199999999999996,45.586656909623L35.6,50.76014027657123L36,57.87165745440129L36.400000000000006,62.49884456692479L36.8,62.16594418166426L37.199999999999996,54.08236122454161L37.6,49.303174373532755L38,59.03790536591829L38.400000000000006,64.20674659009276L38.8,68.32136249958857L39.2,67.50736149263565L39.6,71.55886354900187L40,70.5341970798821L40.4,77.01761667228033L40.8,76.76635403416374L41.2,78.4126442128872L41.6,82.63700109865977L42,81.21687266512122L42.4,89.57239453921031L42.8,91.64466172130403L43.2,91.93264970803016L43.6,85.08477152281455L44,89.99526619989368L44.4,93.14754161158062L44.8,95.6329246401876L45.2,98.07525642677781L45.6,92.81401506921404L46,93.14809119323589L46.4,93.72225616020752L46.8,92.41985948567604L47.2,91.49650831543075L47.6,94.12748113709685L48,93.0207988379553L48.4,94.46600916096833L48.8,90.44733662871543L49.2,94.32415197949533L49.6,95.23557007573824L50,97.2989364190592L50.4,100.199934171562L50.8,99.28542049407982L51.2,101.83308598450047L51.6,100.71797408252107L52,98.03625706478431L52.4,97.66027609782189L52.8,100.5647194073967L53.2,101.27598354165845L53.6,109.83269300663248L54,112.58247454970459L54.4,112.55389183863429L54.8,108.01308920867658L55.2,103.08215878407992L55.6,97.0851935792048L56,104.55478833151388L56.4,105.60240532069047L56.8,110.60718468683154L57.2,113.44715760798469L57.6,113.03040641266539L58,108.80356400919389L58.4,111.86592191622694L58.8,115.37316898013962L59.2,110.22723868673444L59.6,115.00789232292357L60,113.99527653417407L60.4,114.60676608009481L60.8,112.47956312039558L61.2,115.9329363493095L61.6,113.44030276452523L62,117.53879642522747L62.4,114.83887751547725L62.8,115.21624689860363L63.2,116.55706839485951L63.6,121.15237453671321L64,120.39495618385489L64.39999999999999,121.75993932161724L64.8,122.02304029991754L65.19999999999999,119.20193400611097L65.6,120.10614701306977L66,121.5785010963263L66.39999999999999,122.73257633638191L66.8,125.49894230215048L67.2,126.76658421598756L67.60000000000001,125.88545950060694L68,126.50199751909118L68.4,126.8376332492339L68.80000000000001,127.72723382111091L69.19999999999999,127.06437985725287L69.6,123.43578019509832L70,124.18072362182332L70.39999999999999,127.31612293307953L70.8,125.04534181346793L71.2,125.3478493294498L71.60000000000001,128.2729644180042L72,122.49646698330561L72.4,127.59728990372096L72.80000000000001,129.83569250255033L73.19999999999999,126.4512452371622L73.6,124.98718477431115L74,130.0686056921581L74.39999999999999,127.26052315029135L74.8,127.90060448370997L75.2,127.7394960506244L75.60000000000001,129.45380050921693L76,130.16632380207142L76.4,134.3510156515942L76.80000000000001,135.41627819809372L77.19999999999999,136.65315076104744L77.6,134.43007956037656L78,134.47293376314855L78.4,133.93501546357467L78.8,133.24555678648085L79.2,131.7860482682227L79.60000000000001,133.2117338211138L80,129.94277777225312L80.4,130.00655317058354L80.8,132.52006366870194L81.19999999999999,133.00815910548542L81.6,131.4927272310776L82,134.2780462553501L82.4,135.6580586732881L82.8,135.4833864545333L83.2,129.92031617659626L83.60000000000001,130.56322667684321L84,127.60167799764771L84.4,129.75068422255274L84.8,133.30996574840796L85.19999999999999,130.85600309571072L85.6,130.1702681622405L86,125.61336417579682L86.4,130.80568562485843L86.8,131.91444489609466L87.2,131.8187991037503L87.60000000000001,133.19039755448722L88,134.82319967532595L88.4,135.6898535258925L88.8,134.0113722036908L89.19999999999999,135.09925930444504L89.6,133.9074906455682L90,133.2773293444905L90.4,134.15637735098676L90.8,135.60115737333984L91.2,136.13876062215382L91.60000000000001,133.75182156468532L92,134.59036514051363L92.4,133.00288717860454L92.8,134.39193339881624L93.19999999999999,131.45157097495812L93.6,131.9436138553991L94,134.29836191078888L94.4,139.0494362946992L94.8,139.27322037986738L95.2,141.49759284222557L95.60000000000001,142.73731507584262L96,138.93757512837033L96.4,136.43051236585052L96.8,133.26824925565953L97.19999999999999,138.28514587748484L97.6,141.2961181416555L98,137.19453358161385L98.4,138.35821113987953L98.8,137.34052564101287L99.2,139.259820881293L99.60000000000001,142.37666574776793L100,140.93848269796814L100.4,142.1953048917215L100.8,142.354927779093L101.19999999999999,140.84730564132764L101.6,135.0273987141994L102,138.74603326009324L102.4,142.65767274121868L102.8,142.24795458139295L103.2,140.48216706621574L103.60000000000001,141.72079370175788L104,143.31003212384863L104.39999999999999,145.44161065866288L104.8,147.00945071719644L105.19999999999999,143.49068003375572L105.6,142.78939616759652L106,141.7228300349229L106.4,143.65887562784565L106.8,141.84824086148618L107.2,139.1948813173037L107.60000000000001,140.37148841907006L108,137.78702769715304L108.39999999999999,136.71069518928743L108.8,136.79800170689265L109.2,134.68025759476808L109.6,141.71991986664673L110,136.67091046012058L110.4,138.3627529407788L110.8,139.59937792475367L111.2,141.54474678805096L111.60000000000001,136.95818460987888L112,138.6956614062869L112.39999999999999,139.42954473680788L112.8,141.6742307850996L113.2,140.73200255473685L113.6,142.931059933037L114,145.46467569261085L114.4,138.9654453389593L114.8,138.840446623218L115.2,144.25217913475066L115.60000000000001,142.2401076252322L116,145.63647273077132L116.39999999999999,144.31979883536567L116.8,145.06556461025147L117.2,141.1210128209765L117.6,143.49048498328557L118,141.8803709952599L118.4,141.82396135288306L118.8,140.7067277457815L119.2,138.16441718475855L119.60000000000001,137.6799725264547L120,141.19940656803533L120.39999999999999,140.78527358446092L120.8,139.90602409613416L121.2,143.05377383502946L121.6,143.28835920641683L122,146.76789640037458L122.4,148.7254490222582L122.8,148.3207373250439L123.2,144.3693393974498L123.60000000000001,142.2069415461332L124,144.7329599366316L124.39999999999999,141.88485334187575L124.8,139.61049725785995L125.2,141.7215478354991L125.6,141.50975480407766L126,143.45615730303092L126.4,144.9626537793186L126.8,146.11219967004314L127.2,147.3001993078428L127.60000000000001,146.7287677376565L128,147.61458498463563L128.4,146.38782083832297L128.79999999999998,147.86195282780142L129.2,146.3085206540372L129.6,148.05494397223313L130,147.40301611535088L130.39999999999998,142.8500465520354L130.8,139.79236384006117L131.2,140.77246972119445L131.6,141.08423455729468L132,144.39213800352005L132.4,143.0558766720659L132.79999999999998,145.76515905717895L133.20000000000002,148.1268394799466L133.6,148.4627370954752L134,144.67167048566498L134.4,148.71194323185944L134.79999999999998,147.8453902750987L135.20000000000002,149.3892144116038L135.6,151.42277544439943L136,151.38337978438815L136.4,153.54191184320288L136.8,151.48681988414248L137.2,152.4373212675347L137.60000000000002,147.4289839388135L138,151.55976820429632L138.39999999999998,153.36986130310845L138.8,154.0518362678708L139.2,151.14062644893133L139.6,149.83711071786917L140,150.68919745155694L140.4,149.49736851725484L140.79999999999998,144.67955477061506L141.20000000000002,143.86476022721365L141.6,143.47137559548915L142,145.64080631841145L142.4,146.9207744521214L142.79999999999998,149.56336934140793L143.20000000000002,146.79721584423044L143.6,149.45502951049744L144,150.69212889043848L144.4,149.85338157194005L144.8,148.44623966067644L145.2,147.21833023369743L145.60000000000002,150.18815217385867L146,149.99094461316574L146.39999999999998,150.32692580118785L146.8,145.316862994899L147.2,146.77513967867617L147.6,148.47401503902233L148,147.01724548999957L148.4,148.19912294701305L148.79999999999998,147.79330434942693L149.20000000000002,152.344420605793L149.6,152.6958113967272L150,147.23969711464585L150.4,148.27598638478446L150.79999999999998,150.10410680445298L151.20000000000002,150.93947318126985L151.6,151.5274529396141L152,152.08881990309337L152.4,152.53790548345748L152.8,148.9753133790756L153.2,149.40038712424803L153.60000000000002,152.76667142519193L154,155.09089104857853L154.39999999999998,155.85747804922505L154.8,158.1860748933491L155.2,158.9504232190571L155.6,154.15464293051372L156,154.27028781679047L156.4,149.86949118132745L156.8,150.26356440676165L157.20000000000002,153.25418829850318L157.6,152.61336207813238L158,149.82640474164992L158.4,149.04598226214537L158.79999999999998,151.64018689083818L159.20000000000002,151.22452417658602L159.6,152.39585578195388L160,152.11254298064716L160.4,147.9394631579919L160.8,147.69632980059566L161.2,147.7563954256887L161.6,148.38739464657812L162,150.35563438991082L162.39999999999998,150.62375602615066L162.8,151.45987859242865L163.2,152.2532192778544L163.6,153.53247609359394L164,152.57697186781533L164.4,154.30788365307131L164.8,154.21691725659866L165.20000000000002,156.05374629036842L165.6,153.39232116730378L166,150.7757341736823L166.4,154.14467610338417L166.79999999999998,153.69174187008258L167.20000000000002,151.8259972268639L167.6,149.38297427596353L168,153.07408354430828L168.4,156.07317290421992L168.8,153.65057354440316L169.2,153.9737775128615L169.6,147.23215957229525L170,149.9430991606921L170.39999999999998,147.44627056328238L170.8,147.56199918138813L171.2,149.8712974153197L171.6,149.44500027474396L172,148.7855404905374L172.4,148.47937340189017L172.8,150.84587527682103L173.20000000000002,151.1097317172007L173.6,156.10850857542908L174,153.31598784101513L174.4,153.7541771985363L174.79999999999998,153.9138606056114L175.20000000000002,153.59110504219092L175.6,150.81056866292795L176,151.57824998387218L176.4,153.1555472376384L176.8,152.17499595155763L177.2,152.50915781221127L177.6,156.20244748209126L178,153.3255966509561L178.39999999999998,152.55758450187528L178.8,152.0672017205923L179.2,153.86555918543232L179.60000000000002,151.0980442306759L180,150.14521442113735L180.4,152.3359861500284L180.8,154.24117037808202L181.20000000000002,155.65721581688103L181.6,154.1699874380883L182,152.19171533872583L182.4,151.85875930388454L182.79999999999998,150.67077677948748L183.20000000000002,152.09917629132542L183.6,156.29896675404152L184,155.2964095903705L184.4,152.36993809403143L184.8,152.96204317210393L185.2,152.13244045467684L185.6,153.41986012657844L186,155.28897740510703L186.39999999999998,156.28644016683188L186.8,158.66660727573537L187.2,157.2409084120875L187.60000000000002,157.90973128131907L188,155.41128407625456L188.4,155.39141763383535L188.8,155.99424983866805L189.2,154.4099107074235L189.6,153.15785935147306L190,152.56683651487054L190.4,154.7872292515297L190.79999999999998,156.99201797781714L191.20000000000002,156.90889647296586L191.6,156.82646846723668L192,159.381295633156L192.4,161.39819740509753L192.8,154.40382874159067L193.2,152.9880708672683L193.6,154.66850239556197L194,155.62547143018847L194.39999999999998,155.54981237456553L194.8,158.9120763032307L195.2,156.96020865020992L195.60000000000002,158.61514510724774L196,152.83887966951505L196.4,154.27525881240416L196.8,155.41885606365173L197.2,159.28061089569462L197.6,155.8565499850494L198,156.1183970857497L198.4,154.9087590557621L198.79999999999998,156.74159481597863L199.20000000000002,156.71832019777304L199.6,157.8370069954058L200,155.5295019733535L200.4,159.6742484819206L200.8,161.97178014661935L201.2,157.51842701895703L201.6,158.65461029581238L202,159.23197428526848L202.39999999999998,159.38985177131624L202.8,159.22178671751902L203.2,156.1749796791211L203.60000000000002,157.521461752728L204,158.2998072030468L204.4,157.25384282285438L204.8,155.76399393814052L205.2,155.97154915826331L205.6,155.64304575338636L206,156.87854193945188L206.4,157.40764697185074L206.79999999999998,155.24052016495648L207.20000000000002,151.98808284308365L207.6,156.80521443609135L208,157.79376682476104L208.4,158.23957741548054L208.79999999999998,156.39166929911988L209.2,157.19875089599023L209.6,156.01363920049874L210,158.39170352354358L210.39999999999998,159.90135374809097L210.8,160.790937334906L211.2,162.23844351951638L211.60000000000002,156.20792489406838L212,156.81707563943883L212.4,158.04252239004862L212.8,154.7809542136899L213.2,158.72820883441338L213.6,158.31970364097984L214,157.45471464830612L214.4,159.06517695149924L214.79999999999998,161.46947228459865L215.20000000000002,162.26005164291513L215.6,160.80235609994833L216,161.40575768583113L216.4,157.76300367951023L216.79999999999998,155.6507359244529L217.2,157.5450937390854L217.6,156.05467037394737L218,159.99865541794355L218.4,162.97042098150334L218.8,162.86649521935732L219.2,162.77299585373007L219.60000000000002,162.32090720250935L220,163.2787454445262L220.4,161.65656155853358L220.8,158.53423913672955L221.2,159.40385907249606L221.6,157.93770558897558L222,159.75405553940982L222.4,157.3982040623505L222.79999999999998,156.91043295042968L223.20000000000002,159.30218296554943L223.6,159.5390654661667L224,158.89428984903844L224.4,158.96667889327182L224.79999999999998,160.69886707113196L225.2,159.72429895139877L225.6,158.87974107343868L226,158.4753249199311L226.4,158.88549024353102L226.8,160.61022709410287L227.2,160.9167977594328L227.60000000000002,159.92438847425677L228,161.21795667474123L228.4,160.7595522062625L228.8,161.40731533361054L229.2,159.47517957302992L229.6,160.42935520637454L230,159.97989712815962L230.4,160.77930289850502L230.79999999999998,160.09759670066245L231.20000000000002,160.62095031520823L231.6,160.36761665836548L232,161.9557523881386L232.4,163.3450270167486L232.79999999999998,163.12099535812408L233.2,164.8051286743674L233.6,163.58555559286066L234,159.79995899766658L234.4,162.14536308335468L234.8,161.08327068271188L235.2,160.81381335050392L235.60000000000002,164.08558209158556L236,165.19338657672444L236.39999999999998,164.9829809783404L236.8,162.73005042288855L237.2,161.53982631045287L237.6,164.47867145277408L238,163.65539155617515L238.4,160.2576114018807L238.79999999999998,158.66039106140653L239.20000000000002,158.99195654253586L239.6,158.01880816034543L240,161.66330853483407L240.4,162.71263862830025L240.79999999999998,160.96484692165026L241.20000000000002,160.3611165719303L241.6,161.06448107599869L242,163.9790768640895L242.4,164.961689500486L242.8,165.5498351105288" style="fill: none;" fill="none"></path></g></g></g></g><g opacity="0.2"><g><g><g><path stroke="rgb(255, 112, 67)" stroke-width="2px" d="M30,-18.14095528492738L30.4,5.386813795901495L30.8,12.545018544492267L31.2,20.430045506030424L31.6,34.04913727860326L32,28.777115037208084L32.4,42.58950114786591L32.8,28.051941119698615L33.199999999999996,28.240848456079604L33.6,29.727116452449465L34,42.311230840358476L34.400000000000006,46.491891313917385L34.8,49.26992844498289L35.199999999999996,49.029454819786466L35.6,58.52036530970454L36,68.53893320688694L36.400000000000006,69.43962523014322L36.8,61.666593604013705L37.199999999999996,41.956986792358734L37.6,42.134394098261325L38,73.64000185297874L38.400000000000006,71.96000842587091L38.8,74.49328636360141L39.2,66.28635998223372L39.6,77.63611663346933L40,68.99719737621491L40.4,86.74274606083054L40.8,76.3894600769899L41.2,80.88207948096814L41.6,88.9735364273119L42,79.08668001481476L42.4,102.10567735033916L42.8,94.75306249444392L43.2,92.36463168811932L43.6,74.81295424499191L44,97.36100821551206L44.4,97.87595472911087L44.8,99.36099918309797L45.2,101.73875410666312L45.6,84.9221530328684L46,93.64920537926866L46.4,94.58350361066493L46.8,90.46626447387882L47.2,90.11148156006283L47.6,98.07394036959607L48,91.36077538924292L48.4,96.63382464548789L48.8,84.4193278303361L49.2,100.13937500566514L49.6,96.60269722010261L50,100.39398593404063L50.4,104.55143080031627L50.8,97.91364997785647L51.2,105.65458422013148L51.6,99.04530622955198L52,94.01368153817917L52.4,97.09630464737825L52.8,104.9213843717589L53.2,102.34287974305113L53.6,122.6677572040935L54,116.70714686431279L54.4,112.51101777202881L54.8,101.20188526374002L55.2,95.685763147185L55.6,88.0897457718921L56,115.75918045997747L56.4,107.17383080445535L56.8,118.11435373604314L57.2,117.7071169897144L57.6,112.40527961968643L58,102.46330040398664L58.4,116.45945877677656L58.8,120.63403957600866L59.2,102.50834324662662L59.6,122.17887277720729L60,112.47635285104985L60.4,115.52400039897589L60.8,109.2887586808468L61.2,121.11299619268036L61.6,109.7013523873488L62,123.68653691628089L62.4,110.78899915085194L62.8,115.78230097329316L63.2,118.56830063924338L63.6,128.04533374949375L64,119.2588286545674L64.39999999999999,123.80741402826075L64.8,122.41769176736796L65.19999999999999,114.97027456540114L65.6,121.46246652350797L66,123.78703222121112L66.39999999999999,124.46368919646528L66.8,129.64849125080332L67.2,128.66804708674317L67.60000000000001,124.56377242753604L68,127.42680454681755L68.4,127.341086844448L68.80000000000001,129.06163467892645L69.19999999999999,126.07009891146578L69.6,117.99288070186651L70,125.29813876191082L70.39999999999999,132.0192218999638L70.8,121.63917013405052L71.2,125.8016106034226L71.60000000000001,132.66063705083576L72,113.83172083125771L72.4,135.248524284344L72.80000000000001,133.19329640079434L73.19999999999999,121.37457433907997L73.6,122.79109408003458L74,137.69073706892848L74.39999999999999,123.04839933749128L74.8,128.86072648383785L75.2,127.49783340099609L75.60000000000001,132.02525719710573L76,131.23510874135314L76.4,140.6280534258784L76.80000000000001,137.01417201784295L77.19999999999999,138.5084596054781L77.6,131.09547275937018L78,134.53721506730653L78.4,133.1281380142139L78.8,132.21136877084007L79.2,129.59678549083543L79.60000000000001,135.3502621504505L80,125.03934369896217L80.4,130.1022162680792L80.8,136.2903294158795L81.19999999999999,133.74030226066066L81.6,129.2195794194659L82,138.4560247917588L82.4,137.72807730019514L82.8,135.22137812640108L83.2,121.57571075969071L83.60000000000001,131.52759242721368L84,123.15935497885445L84.4,132.97419355991028L84.8,138.64888803719077L85.19999999999999,127.1750591166649L85.6,129.14166576203513L86,118.77800819613128L86.4,138.59416779845085L86.8,133.57758380294905L87.2,131.67533041523376L87.60000000000001,135.2477952305926L88,137.27240285658405L88.4,136.98983430174235L88.8,131.49365022038825L89.19999999999999,136.73108995557638L89.6,132.11983765725296L90,132.332087392874L90.4,135.4749493607311L90.8,137.7683274068695L91.2,136.9451654953748L91.60000000000001,130.17141297848252L92,135.84818050425608L92.4,130.6216702357409L92.8,136.4755027291338L93.19999999999999,127.04102733917085L93.6,132.68167817606053L94,137.83048399387357L94.4,146.17604787056467L94.8,139.60889650761965L95.2,144.83415153576286L95.60000000000001,144.59689842626818L96,133.2379652071619L96.4,132.6699182220708L96.8,128.52485459037305L97.19999999999999,145.8104908102228L97.6,145.81257653791153L98,131.04215674155142L98.4,140.10372747727806L98.8,135.81399739271282L99.2,142.1387637417132L99.60000000000001,147.05193304748033L100,138.7812081232685L100.4,144.08053818235146L100.8,142.59436211015026L101.19999999999999,138.58587243467963L101.6,126.29753832350701L102,144.323985078934L102.4,148.52513196290687L102.8,141.63337734165432L103.2,137.83348579344994L103.60000000000001,143.57873365507112L104,145.69388975698473L104.39999999999999,148.63897846088423L104.8,149.3612108049968L105.19999999999999,138.21252400859464L105.6,141.73747036835772L106,140.12298083591247L106.4,146.56294401722977L106.8,139.132288711947L107.2,135.21484200102995L107.60000000000001,142.1363990717196L108,133.91033661427747L108.39999999999999,135.0961964274891L108.8,136.9289614833005L109.2,131.50364142658117L109.6,152.27941327446473L110,129.0973963503314L110.4,140.9005166617661L110.8,141.45431540071598L111.2,144.4628000829969L111.60000000000001,130.07834134262072L112,141.3018766008989L112.39999999999999,140.53036973258938L112.8,145.04125985753714L113.2,139.31866020919273L113.6,146.22964600048726L114,149.26509933197164L114.4,129.216599808482L114.8,138.6529485496061L115.2,152.3697779020496L115.60000000000001,139.22200036095455L116,150.73102038908L116.39999999999999,142.34478799225718L116.8,146.18421327258022L117.2,135.20418513706403L117.6,147.0446932267492L118,139.4652000132214L118.4,141.7393468893178L118.8,139.03087733512916L119.2,134.35095134322407L119.60000000000001,136.95330553899896L120,146.47855763040627L120.39999999999999,140.16407410909932L120.8,138.58714986364402L121.2,147.7753984433724L121.6,143.64023726349785L122,151.9872021913112L122.4,151.66177795508366L122.8,147.7136697792224L123.2,138.44224250605868L123.60000000000001,138.96334476915834L124,148.52198752237913L124.39999999999999,137.61269344974204L124.8,136.1989631318362L125.2,144.88812370195788L125.6,141.1920652569455L126,146.37576105146078L126.4,147.22239849375015L126.8,147.83651850612995L127.2,149.08219876454228L127.60000000000001,145.87162038237707L128,148.94331085510427L128.4,144.54767461885393L128.79999999999998,150.07315081201915L129.2,143.97837239339088L129.6,150.674578949527L130,146.42512433002747L130.39999999999998,136.0205922070622L130.8,135.20583977209978L131.2,142.24262854289444L131.6,141.55188181144499L132,149.35399317285808L132.4,141.0514846748847L132.79999999999998,149.82908263484848L133.20000000000002,151.66936011409808L133.6,148.9665835187681L134,138.98507057094966L134.4,154.7723523511511L134.79999999999998,146.5455608399576L135.20000000000002,151.70495061636143L135.6,154.47311699359292L136,151.3242862943712L136.4,156.77970993142495L136.8,148.40418194555184L137.2,153.86307334262304L137.60000000000002,139.91647794573174L138,157.75594460252054L138.39999999999998,156.08500095132666L138.8,155.0747987150143L139.2,146.77381172052208L139.6,147.8818371212759L140,151.96732755208862L140.4,147.70962511580169L140.79999999999998,137.4528341506554L141.20000000000002,142.6425684121115L141.6,142.88129864790244L142,148.8949524027949L142.4,148.84072665268636L142.79999999999998,153.5272616753377L143.20000000000002,142.6479855984642L143.6,153.44175000989793L144,152.54777796035006L144.4,148.59526059419238L144.8,146.335526793781L145.2,145.37646609322894L145.60000000000002,154.64288508410056L146,149.69513327212638L146.39999999999998,150.830897583221L146.8,137.8017687854657L147.2,148.96255470434195L147.6,151.02232807954155L148,144.83209116646546L148.4,149.9719391325332L148.79999999999998,147.18457645304778L149.20000000000002,159.1710949903421L149.6,153.22289758312849L150,139.05552569152385L150.4,149.83042028999233L150.79999999999998,152.84628743395575L151.20000000000002,152.19252274649514L151.6,152.40942257713044L152,152.93087034831228L152.4,153.21153385400362L152.8,143.63142522250286L153.2,150.03799774200664L153.60000000000002,157.81609787660776L154,158.57722048365844L154.39999999999998,157.00735855019482L154.8,161.67897015953517L155.2,160.09694570761908L155.6,146.96097249769866L156,154.44375514620558L156.4,143.26829622813295L156.8,150.85467424491296L157.20000000000002,157.74012413611547L157.6,151.6521227475762L158,145.64596873692622L158.4,147.8753485428886L158.79999999999998,155.53149383387733L159.20000000000002,150.60103010520777L159.6,154.15285319000563L160,151.68757377868707L160.4,141.679843424009L160.8,147.33162976450134L161.2,147.84649386332828L161.6,149.33389347791223L162,153.30799400490986L162.39999999999998,151.02593848051038L162.8,152.7140624418456L163.2,153.44323030599313L163.6,155.45136131720324L164,151.14371552914739L164.4,156.90425133095528L164.8,154.0804676618897L165.20000000000002,158.80898984102308L165.6,149.40018348270678L166,146.85085368325014L166.4,159.19808899793694L166.79999999999998,153.01234052013024L167.20000000000002,149.02738026203588L167.6,145.71843984961293L168,158.61074744682543L168.4,160.5718069440873L168.8,150.01667450467806L169.2,154.458583465549L169.6,137.11973266144588L170,154.00950854328738L170.39999999999998,143.7010276671678L170.8,147.7355921085467L171.2,153.33524476621713L171.6,148.80555456388035L172,147.79635081422748L172.4,148.02012276891932L172.8,154.39562808921733L173.20000000000002,151.5055163777702L173.6,163.6066738627717L174,149.12720673939418L174.4,154.41146123481806L174.79999999999998,154.15338571622402L175.20000000000002,153.1069716970602L175.6,146.63976409403347L176,152.72977196528853L176.4,155.52149311828768L176.8,150.70416902243653L177.2,153.01040060319178L177.6,161.7423819869112L178,149.01032040425343L178.39999999999998,151.40556627825404L178.8,151.33162754866777L179.2,156.56309538269238L179.60000000000002,146.94677179854122L180,148.71596970682955L180.4,155.62214374336494L180.8,157.09894672016247L181.20000000000002,157.7812839750796L181.6,151.93914486989917L182,149.22430718968212L182.4,151.35932525162264L182.79999999999998,148.88880299289193L183.20000000000002,154.24177555908233L183.6,162.59865244811562L184,153.79257384486397L184.4,147.9802308495228L184.8,153.8502007892127L185.2,150.88803637853619L185.6,155.35098963443082L186,158.0926533229L186.39999999999998,157.78263430941914L186.8,162.23685793909067L187.2,155.1023601166156L187.60000000000002,158.91296558516646L188,151.6636132686578L188.4,155.36161797020648L188.8,156.89849814591716L189.2,152.03340201055667L189.6,151.27978231754744L190,151.6803022599667L190.4,158.11781835651848L190.79999999999998,160.29920106724828L191.20000000000002,156.78421421568896L191.6,156.70282645864287L192,163.21353638203493L192.4,164.42355006300988L192.8,143.9122757463304L193.2,150.86443405578478L193.6,157.1891496880025L194,157.0609249821282L194.39999999999998,155.43632379113114L194.8,163.95547219622844L195.2,154.03240717067877L195.60000000000002,161.0975497928045L196,144.17448151291597L196.4,156.42982752673785L196.8,157.1342519405231L197.2,165.07324314375896L197.6,150.72045861908163L198,156.51116773680013L198.4,153.09430201078067L198.79999999999998,159.49084845630344L199.20000000000002,156.68340827046464L199.6,159.51503719185487L200,152.0682444402751L200.4,165.8913682447713L200.8,165.41807764366743L201.2,150.83839732746353L201.6,160.35888521109547L202,160.09802026945266L202.39999999999998,159.6266680003878L202.8,158.96968913682326L203.2,151.60476912152416L203.60000000000002,159.5411848631383L204,159.467325378525L204.4,155.6848962525658L204.8,153.5292206110697L205.2,156.28288198844754L205.6,155.1502906460709L206,158.73178621855018L206.4,158.20130452044899L206.79999999999998,151.98982995461512L207.20000000000002,147.10942686027445L207.6,164.03091182560289L208,159.27659540776557L208.4,158.90829330155975L208.79999999999998,153.61980712457893L209.2,158.40937329129576L209.6,154.23597165726153L210,161.95880000811079L210.39999999999998,162.1658290849121L210.8,162.12531271512853L211.2,164.40970279643193L211.60000000000002,147.16214695589645L212,157.73080175749448L212.4,159.8806925159633L212.8,149.8886019491519L213.2,164.64909076549856L213.6,157.70694585082953L214,156.15723115929555L214.4,161.4808704062889L214.79999999999998,165.07591528424774L215.20000000000002,163.4459206803899L215.6,158.61581278549812L216,162.3108600646553L216.4,152.2988726700289L216.79999999999998,152.48233429186692L217.2,160.3866304610341L217.6,153.8190353262404L218,165.9146329839378L218.4,167.42806932684303L218.8,162.7106065761383L219.2,162.63274680528914L219.60000000000002,161.6427742256783L220,164.7155028075515L220.4,159.22328572954464L220.8,153.85075550402354L221.2,160.70828897614578L221.6,155.73847536369487L222,162.4785804650612L222.4,153.8644268467615L222.79999999999998,156.17877628254848L223.20000000000002,162.88980798822908L223.6,159.8943892170926L224,157.92712642334607L224.4,159.07526245962185L224.79999999999998,163.29714933792218L225.2,158.26244677179898L225.6,157.61290425649852L226,157.86870068966977L226.4,159.50073822893094L226.8,163.19733236996063L227.2,161.37665375742768L227.60000000000002,158.4357745464927L228,163.15830897546795L228.4,160.07194550354438L228.8,162.37896002463262L229.2,156.57697593215897L229.6,161.86061865639147L230,159.30571001083723L230.4,161.9784115540231L230.79999999999998,159.0750374038986L231.20000000000002,161.4059807370269L231.6,159.9876161731014L232,164.33795598279818L232.4,165.42893895966364L232.79999999999998,162.7849478701873L233.2,167.33132864873244L233.6,161.75619597060052L234,154.1215641048755L234.4,165.66346921188682L234.8,159.49013208174773L235.2,160.40962735219196L235.60000000000002,168.99323520320803L236,166.85509330443276L236.39999999999998,164.66737258076432L236.8,159.35065458971076L237.2,159.75449014179938L237.6,168.8869391662559L238,162.42047171127678L238.4,155.16094117043897L238.79999999999998,156.2645605506953L239.20000000000002,159.48930476422987L239.6,156.55908558705974L240,167.13005909656707L240.4,164.2866337684995L240.79999999999998,158.34315936167528L241.20000000000002,159.4555210473504L241.6,162.11952783210123L242,168.3509705462258L242.4,166.4356084550807L242.8,166.43205352559295" style="fill: none;" fill="none"></path></g></g></g></g></g></g><g transform="translate(70, 176)" clip-path="url(#clip_1)"><clipPath id="clip_1"><rect width="260" height="23"></rect></clipPath><g><g><line x1="0" y1="0" x2="0" y2="5" style="visibility: inherit;" fill="rgb(0, 0, 0)" stroke="rgb(204, 204, 204)" stroke-width="1px"></line><line x1="20" y1="0" x2="20" y2="5" style="visibility: inherit;" fill="rgb(0, 0, 0)" stroke="rgb(204, 204, 204)" stroke-width="1px"></line><line x1="40" y1="0" x2="40" y2="5" style="visibility: inherit;" fill="rgb(0, 0, 0)" stroke="rgb(204, 204, 204)" stroke-width="1px"></line><line x1="60" y1="0" x2="60" y2="5" style="visibility: inherit;" fill="rgb(0, 0, 0)" stroke="rgb(204, 204, 204)" stroke-width="1px"></line><line x1="80" y1="0" x2="80" y2="5" style="visibility: inherit;" fill="rgb(0, 0, 0)" stroke="rgb(204, 204, 204)" stroke-width="1px"></line><line x1="100" y1="0" x2="100" y2="5" style="visibility: inherit;" fill="rgb(0, 0, 0)" stroke="rgb(204, 204, 204)" stroke-width="1px"></line><line x1="120" y1="0" x2="120" y2="5" style="visibility: inherit;" fill="rgb(0, 0, 0)" stroke="rgb(204, 204, 204)" stroke-width="1px"></line><line x1="140" y1="0" x2="140" y2="5" style="visibility: inherit;" fill="rgb(0, 0, 0)" stroke="rgb(204, 204, 204)" stroke-width="1px"></line><line x1="160" y1="0" x2="160" y2="5" style="visibility: inherit;" fill="rgb(0, 0, 0)" stroke="rgb(204, 204, 204)" stroke-width="1px"></line><line x1="180" y1="0" x2="180" y2="5" style="visibility: inherit;" fill="rgb(0, 0, 0)" stroke="rgb(204, 204, 204)" stroke-width="1px"></line><line x1="200" y1="0" x2="200" y2="5" style="visibility: inherit;" fill="rgb(0, 0, 0)" stroke="rgb(204, 204, 204)" stroke-width="1px"></line><line x1="220" y1="0" x2="220" y2="5" style="visibility: inherit;" fill="rgb(0, 0, 0)" stroke="rgb(204, 204, 204)" stroke-width="1px"></line><line x1="240" y1="0" x2="240" y2="5" style="visibility: inherit;" fill="rgb(0, 0, 0)" stroke="rgb(204, 204, 204)" stroke-width="1px"></line><line x1="260" y1="0" x2="260" y2="5" style="visibility: inherit;" fill="rgb(0, 0, 0)" stroke="rgb(204, 204, 204)" stroke-width="1px"></line></g><g transform="translate(0, 8)"><text x="0" y="0" dx="0em" dy="0.95em" style="text-anchor: middle; visibility: hidden; font-family: Roboto, sans-serif; font-size: 12px; font-weight: 200;" fill="rgb(255, 255, 255)" stroke="none" stroke-width="1px">-50</text><text x="20" y="0" dx="0em" dy="0.95em" style="text-anchor: middle; visibility: inherit; font-family: Roboto, sans-serif; font-size: 12px; font-weight: 200;" fill="rgb(255, 255, 255)" stroke="none" stroke-width="1px">0</text><text x="40" y="0" dx="0em" dy="0.95em" style="text-anchor: middle; visibility: hidden; font-family: Roboto, sans-serif; font-size: 12px; font-weight: 200;" fill="rgb(255, 255, 255)" stroke="none" stroke-width="1px">50</text><text x="60" y="0" dx="0em" dy="0.95em" style="text-anchor: middle; visibility: inherit; font-family: Roboto, sans-serif; font-size: 12px; font-weight: 200;" fill="rgb(255, 255, 255)" stroke="none" stroke-width="1px">100</text><text x="80" y="0" dx="0em" dy="0.95em" style="text-anchor: middle; visibility: hidden; font-family: Roboto, sans-serif; font-size: 12px; font-weight: 200;" fill="rgb(255, 255, 255)" stroke="none" stroke-width="1px">150</text><text x="100" y="0" dx="0em" dy="0.95em" style="text-anchor: middle; visibility: inherit; font-family: Roboto, sans-serif; font-size: 12px; font-weight: 200;" fill="rgb(255, 255, 255)" stroke="none" stroke-width="1px">200</text><text x="120" y="0" dx="0em" dy="0.95em" style="text-anchor: middle; visibility: hidden; font-family: Roboto, sans-serif; font-size: 12px; font-weight: 200;" fill="rgb(255, 255, 255)" stroke="none" stroke-width="1px">250</text><text x="140" y="0" dx="0em" dy="0.95em" style="text-anchor: middle; visibility: inherit; font-family: Roboto, sans-serif; font-size: 12px; font-weight: 200;" fill="rgb(255, 255, 255)" stroke="none" stroke-width="1px">300</text><text x="160" y="0" dx="0em" dy="0.95em" style="text-anchor: middle; visibility: hidden; font-family: Roboto, sans-serif; font-size: 12px; font-weight: 200;" fill="rgb(255, 255, 255)" stroke="none" stroke-width="1px">350</text><text x="180" y="0" dx="0em" dy="0.95em" style="text-anchor: middle; visibility: inherit; font-family: Roboto, sans-serif; font-size: 12px; font-weight: 200;" fill="rgb(255, 255, 255)" stroke="none" stroke-width="1px">400</text><text x="200" y="0" dx="0em" dy="0.95em" style="text-anchor: middle; visibility: hidden; font-family: Roboto, sans-serif; font-size: 12px; font-weight: 200;" fill="rgb(255, 255, 255)" stroke="none" stroke-width="1px">450</text><text x="220" y="0" dx="0em" dy="0.95em" style="text-anchor: middle; visibility: inherit; font-family: Roboto, sans-serif; font-size: 12px; font-weight: 200;" fill="rgb(255, 255, 255)" stroke="none" stroke-width="1px">500</text><text x="240" y="0" dx="0em" dy="0.95em" style="text-anchor: middle; visibility: hidden; font-family: Roboto, sans-serif; font-size: 12px; font-weight: 200;" fill="rgb(255, 255, 255)" stroke="none" stroke-width="1px">550</text><text x="260" y="0" dx="0em" dy="0.95em" style="text-anchor: middle; visibility: hidden; font-family: Roboto, sans-serif; font-size: 12px; font-weight: 200;" fill="rgb(255, 255, 255)" stroke="none" stroke-width="1px">600</text></g><line x1="0" y1="0" x2="260" y2="0" fill="rgb(0, 0, 0)" stroke="rgb(204, 204, 204)" stroke-width="1px"></line></g></g></g></g></svg>