<svg viewBox="0 0 330 200" xmlns="http://www.w3.org/2000/svg"><g><g><g><g><g><line x1="60" y1="176.984375" x2="55" y2="176.984375" style="visibility: inherit;" fill="rgb(0, 0, 0)" stroke="rgb(204, 204, 204)" stroke-width="1px"></line><line x1="60" y1="157.31944444444443" x2="55" y2="157.31944444444443" style="visibility: inherit;" fill="rgb(0, 0, 0)" stroke="rgb(204, 204, 204)" stroke-width="1px"></line><line x1="60" y1="137.65451388888889" x2="55" y2="137.65451388888889" style="visibility: inherit;" fill="rgb(0, 0, 0)" stroke="rgb(204, 204, 204)" stroke-width="1px"></line><line x1="60" y1="117.98958333333334" x2="55" y2="117.98958333333334" style="visibility: inherit;" fill="rgb(0, 0, 0)" stroke="rgb(204, 204, 204)" stroke-width="1px"></line><line x1="60" y1="98.3246527777778" x2="55" y2="98.3246527777778" style="visibility: inherit;" fill="rgb(0, 0, 0)" stroke="rgb(204, 204, 204)" stroke-width="1px"></line><line x1="60" y1="78.65972222222224" x2="55" y2="78.65972222222224" style="visibility: inherit;" fill="rgb(0, 0, 0)" stroke="rgb(204, 204, 204)" stroke-width="1px"></line><line x1="60" y1="58.99479166666669" x2="55" y2="58.99479166666669" style="visibility: inherit;" fill="rgb(0, 0, 0)" stroke="rgb(204, 204, 204)" stroke-width="1px"></line><line x1="60" y1="39.32986111111113" x2="55" y2="39.32986111111113" style="visibility: inherit;" fill="rgb(0, 0, 0)" stroke="rgb(204, 204, 204)" stroke-width="1px"></line><line x1="60" y1="19.664930555555564" x2="55" y2="19.664930555555564" style="visibility: inherit;" fill="rgb(0, 0, 0)" stroke="rgb(204, 204, 204)" stroke-width="1px"></line><line x1="60" y1="0" x2="55" y2="0" style="visibility: inherit;" fill="rgb(0, 0, 0)" stroke="rgb(204, 204, 204)" stroke-width="1px"></line></g><g transform="translate(50, 0)"><text x="0" y="176.984375" dx="0em" dy="0.3em" style="text-anchor: end; visibility: hidden; font-family: Roboto, sans-serif; font-size: 12px; font-weight: 200;" fill="rgb(255, 255, 255)" stroke="none" stroke-width="1px">0.01</text><text x="0" y="157.31944444444443" dx="0em" dy="0.3em" style="text-anchor: end; visibility: inherit; font-family: Roboto, sans-serif; font-size: 12px; font-weight: 200;" fill="rgb(255, 255, 255)" stroke="none" stroke-width="1px">0.012</text><text x="0" y="137.65451388888889" dx="0em" dy="0.3em" style="text-anchor: end; visibility: hidden; font-family: Roboto, sans-serif; font-size: 12px; font-weight: 200;" fill="rgb(255, 255, 255)" stroke="none" stroke-width="1px">0.014</text><text x="0" y="117.98958333333334" dx="0em" dy="0.3em" style="text-anchor: end; visibility: inherit; font-family: Roboto, sans-serif; font-size: 12px; font-weight: 200;" fill="rgb(255, 255, 255)" stroke="none" stroke-width="1px">0.016</text><text x="0" y="98.3246527777778" dx="0em" dy="0.3em" style="text-anchor: end; visibility: hidden; font-family: Roboto, sans-serif; font-size: 12px; font-weight: 200;" fill="rgb(255, 255, 255)" stroke="none" stroke-width="1px">0.018</text><text x="0" y="78.65972222222224" dx="0em" dy="0.3em" style="text-anchor: end; visibility: inherit; font-family: Roboto, sans-serif; font-size: 12px; font-weight: 200;" fill="rgb(255, 255, 255)" stroke="none" stroke-width="1px">0.02</text><text x="0" y="58.99479166666669" dx="0em" dy="0.3em" style="text-anchor: end; visibility: hidden; font-family: Roboto, sans-serif; font-size: 12px; font-weight: 200;" fill="rgb(255, 255, 255)" stroke="none" stroke-width="1px">0.022</text><text x="0" y="39.32986111111113" dx="0em" dy="0.3em" style="text-anchor: end; visibility: inherit; font-family: Roboto, sans-serif; font-size: 12px; font-weight: 200;" fill="rgb(255, 255, 255)" stroke="none" stroke-width="1px">0.024</text><text x="0" y="19.664930555555564" dx="0em" dy="0.3em" style="text-anchor: end; visibility: hidden; font-family: Roboto, sans-serif; font-size: 12px; font-weight: 200;" fill="rgb(255, 255, 255)" stroke="none" stroke-width="1px">0.026</text><text x="0" y="0" dx="0em" dy="0.3em" style="text-anchor: end; visibility: hidden; font-family: Roboto, sans-serif; font-size: 12px; font-weight: 200;" fill="rgb(255, 255, 255)" stroke="none" stroke-width="1px">0.028</text></g><line x1="60" y1="0" x2="60" y2="176.984375" fill="rgb(0, 0, 0)" stroke="rgb(204, 204, 204)" stroke-width="1px"></line></g></g><g transform="translate(60, 0)" clip-path="url(#clip_0)"><clipPath id="clip_0"><rect width="270" height="176"></rect></clipPath><g><g><g><line x1="0" y1="0" x2="0" y2="176.984375" fill="rgb(0, 0, 0)" stroke="rgb(189, 189, 189)" stroke-width="1px" opacity="0.25"></line><line x1="20.76923076923077" y1="0" x2="20.76923076923077" y2="176.984375" fill="rgb(0, 0, 0)" stroke="rgb(189, 189, 189)" stroke-width="1px" opacity="0.25"></line><line x1="41.53846153846154" y1="0" x2="41.53846153846154" y2="176.984375" fill="rgb(0, 0, 0)" stroke="rgb(189, 189, 189)" stroke-width="1px" opacity="0.25"></line><line x1="62.307692307692314" y1="0" x2="62.307692307692314" y2="176.984375" fill="rgb(0, 0, 0)" stroke="rgb(189, 189, 189)" stroke-width="1px" opacity="0.25"></line><line x1="83.07692307692308" y1="0" x2="83.07692307692308" y2="176.984375" fill="rgb(0, 0, 0)" stroke="rgb(189, 189, 189)" stroke-width="1px" opacity="0.25"></line><line x1="103.84615384615385" y1="0" x2="103.84615384615385" y2="176.984375" fill="rgb(0, 0, 0)" stroke="rgb(189, 189, 189)" stroke-width="1px" opacity="0.25"></line><line x1="124.61538461538463" y1="0" x2="124.61538461538463" y2="176.984375" fill="rgb(0, 0, 0)" stroke="rgb(189, 189, 189)" stroke-width="1px" opacity="0.25"></line><line x1="145.3846153846154" y1="0" x2="145.3846153846154" y2="176.984375" fill="rgb(0, 0, 0)" stroke="rgb(189, 189, 189)" stroke-width="1px" opacity="0.25"></line><line x1="166.15384615384616" y1="0" x2="166.15384615384616" y2="176.984375" fill="rgb(0, 0, 0)" stroke="rgb(189, 189, 189)" stroke-width="1px" opacity="0.25"></line><line x1="186.9230769230769" y1="0" x2="186.9230769230769" y2="176.984375" fill="rgb(0, 0, 0)" stroke="rgb(189, 189, 189)" stroke-width="1px" opacity="0.25"></line><line x1="207.6923076923077" y1="0" x2="207.6923076923077" y2="176.984375" fill="rgb(0, 0, 0)" stroke="rgb(189, 189, 189)" stroke-width="1px" opacity="0.25"></line><line x1="228.46153846153845" y1="0" x2="228.46153846153845" y2="176.984375" fill="rgb(0, 0, 0)" stroke="rgb(189, 189, 189)" stroke-width="1px" opacity="0.25"></line><line x1="249.23076923076925" y1="0" x2="249.23076923076925" y2="176.984375" fill="rgb(0, 0, 0)" stroke="rgb(189, 189, 189)" stroke-width="1px" opacity="0.25"></line><line x1="270" y1="0" x2="270" y2="176.984375" fill="rgb(0, 0, 0)" stroke="rgb(189, 189, 189)" stroke-width="1px" opacity="0.25"></line></g><g><line x1="0" y1="176.984375" x2="270" y2="176.984375" fill="rgb(0, 0, 0)" stroke="rgb(189, 189, 189)" stroke-width="1px" opacity="0.25"></line><line x1="0" y1="157.31944444444443" x2="270" y2="157.31944444444443" fill="rgb(0, 0, 0)" stroke="rgb(189, 189, 189)" stroke-width="1px" opacity="0.25"></line><line x1="0" y1="137.65451388888889" x2="270" y2="137.65451388888889" fill="rgb(0, 0, 0)" stroke="rgb(189, 189, 189)" stroke-width="1px" opacity="0.25"></line><line x1="0" y1="117.98958333333334" x2="270" y2="117.98958333333334" fill="rgb(0, 0, 0)" stroke="rgb(189, 189, 189)" stroke-width="1px" opacity="0.25"></line><line x1="0" y1="98.3246527777778" x2="270" y2="98.3246527777778" fill="rgb(0, 0, 0)" stroke="rgb(189, 189, 189)" stroke-width="1px" opacity="0.25"></line><line x1="0" y1="78.65972222222224" x2="270" y2="78.65972222222224" fill="rgb(0, 0, 0)" stroke="rgb(189, 189, 189)" stroke-width="1px" opacity="0.25"></line><line x1="0" y1="58.99479166666669" x2="270" y2="58.99479166666669" fill="rgb(0, 0, 0)" stroke="rgb(189, 189, 189)" stroke-width="1px" opacity="0.25"></line><line x1="0" y1="39.32986111111113" x2="270" y2="39.32986111111113" fill="rgb(0, 0, 0)" stroke="rgb(189, 189, 189)" stroke-width="1px" opacity="0.25"></line><line x1="0" y1="19.664930555555564" x2="270" y2="19.664930555555564" fill="rgb(0, 0, 0)" stroke="rgb(189, 189, 189)" stroke-width="1px" opacity="0.25"></line><line x1="0" y1="0" x2="270" y2="0" fill="rgb(0, 0, 0)" stroke="rgb(189, 189, 189)" stroke-width="1px" opacity="0.25"></line></g></g></g><g><g><line x1="0" y1="275.3090277777777" x2="270" y2="275.3090277777777" fill="rgb(0, 0, 0)" stroke="rgb(153, 153, 153)" stroke-width="1.5px"></line></g></g><g><g><line x1="20.76923076923077" y1="0" x2="20.76923076923077" y2="176.984375" fill="rgb(0, 0, 0)" stroke="rgb(153, 153, 153)" stroke-width="1.5px"></line></g></g><g><g><g><g><g><path stroke="rgb(255, 112, 67)" stroke-width="2px" d="M30.323076923076922,-6.902203481397531L30.73846153846154,0.9164656518089483L31.153846153846157,5.935737514712511L31.569230769230767,10.0481671623597L31.984615384615385,14.87517693992674L32.4,17.306268394187047L32.815384615384616,20.863283833155972L33.23076923076923,24.24065182895494L33.646153846153844,28.48419837259606L34.06153846153846,28.606862824690413L34.47692307692308,32.39061346258491L34.892307692307696,38.75789628988756L35.30769230769231,42.163642688849436L35.723076923076924,42.00706295371744L36.138461538461534,45.53363634775334L36.55384615384615,47.87375588160786L36.96923076923077,50.36565863451831L37.38461538461539,52.980937910094546L37.800000000000004,53.095796094129994L38.215384615384615,57.498614492348935L38.63076923076923,57.515772321640384L39.04615384615385,56.04388313249669L39.46153846153847,57.98025786356777L39.87692307692308,59.795459687990395L40.29230769230769,61.1763437266334L40.707692307692305,63.72306464006479L41.12307692307692,65.57579673785892L41.53846153846154,65.01395460430929L41.95384615384615,65.10452704714066L42.36923076923077,67.15851660630636L42.784615384615385,70.55951770629204L43.2,68.3201983867279L43.61538461538462,70.91089020984738L44.03076923076923,75.05344414882151L44.44615384615384,75.88411719556639L44.86153846153846,77.4517519597964L45.276923076923076,80.68990281788334L45.69230769230769,77.86589362324897L46.107692307692304,77.9803055427662L46.52307692307692,78.41116744839813L46.93846153846154,79.29487938850055L47.353846153846156,80.3539603123783L47.769230769230774,83.8612010422792L48.184615384615384,85.1163729736349L48.6,86.36217727899296L49.01538461538461,86.66147734400187L49.43076923076923,89.06364092876711L49.84615384615385,88.9739656481014L50.26153846153846,87.96637615599059L50.676923076923075,89.00230864114424L51.09230769230769,91.10131225369535L51.50769230769231,90.00513174801985L51.92307692307693,89.10766605309391L52.33846153846154,91.28623683600091L52.753846153846155,91.79876904103403L53.16923076923077,94.4807934688873L53.58461538461539,95.5112146768928L54,94.09689935401921L54.41538461538461,92.1858408982862L54.83076923076923,93.22045012102339L55.246153846153845,91.0449959934806L55.66153846153846,95.60855634411256L56.07692307692308,97.93861855860848L56.49230769230769,97.75769141838647L56.90769230769231,97.89511209389299L57.323076923076925,95.81425365738448L57.73846153846154,97.97009136416587L58.15384615384616,99.88543358802204L58.569230769230764,100.24095902882743L58.98461538461538,99.83803157225469L59.4,98.2723129222735L59.815384615384616,101.41775341834852L60.23076923076923,100.70737736341117L60.646153846153844,101.55554050547128L61.06153846153846,105.7075156191067L61.47692307692308,105.51085828258532L61.892307692307696,106.62584747429452L62.307692307692314,107.61669081940646L62.723076923076924,107.72089852838955L63.138461538461534,106.8417849360061L63.55384615384615,108.91877741339263L63.96923076923077,107.88726302886316L64.38461538461539,106.83653029644118L64.8,107.16380158672034L65.21538461538461,108.01069162705248L65.63076923076923,108.58428129453084L66.04615384615384,109.30736722755871L66.46153846153847,110.79557843582978L66.87692307692308,108.6594216458959L67.29230769230769,108.93072955626853L67.7076923076923,108.91104433463599L68.12307692307692,111.33816834371859L68.53846153846153,112.35769573842268L68.95384615384616,112.50684186930555L69.36923076923077,113.20787645833255L69.78461538461539,112.19765955951665L70.2,113.705259535267L70.61538461538461,114.12586532862973L71.03076923076924,111.12957036014778L71.44615384615385,111.98067007960893L71.86153846153846,115.15005975567591L72.27692307692307,115.75707836983104L72.6923076923077,115.25457184252222L73.1076923076923,115.5981375029627L73.52307692307693,117.23888731657256L73.93846153846154,116.50378412360081L74.35384615384616,116.42938369654304L74.76923076923077,116.21091786630434L75.18461538461538,115.19352427104191L75.60000000000001,116.35259553542718L76.0153846153846,116.90756689396031L76.43076923076923,119.72398516508741L76.84615384615384,120.3898747100633L77.26153846153846,119.74315840214905L77.67692307692307,118.66665392737629L78.0923076923077,116.22898816967921L78.50769230769231,120.19613395195125L78.92307692307693,121.42067328903453L79.33846153846154,121.54757146559817L79.75384615384615,123.27131718824829L80.16923076923077,122.08451582227507L80.58461538461538,120.95165814329964L81,124.56906073120057L81.41538461538461,123.8020530067565L81.83076923076923,122.77433658993647L82.24615384615385,120.81714439730767L82.66153846153847,121.27148782666384L83.07692307692308,121.70984281063568L83.4923076923077,122.56589418518764L83.9076923076923,122.08784087977159L84.32307692307691,125.25461639577222L84.73846153846154,124.1550916901785L85.15384615384615,122.2395405726732L85.56923076923077,124.0760091788669L85.98461538461538,125.67000909140636L86.4,125.14500168266267L86.81538461538462,124.37807125712709L87.23076923076924,126.64366986445928L87.64615384615385,125.08273301286458L88.06153846153846,125.43017107077269L88.47692307692307,127.01931575901318L88.89230769230768,128.0505325219309L89.3076923076923,125.24077510290518L89.72307692307692,127.50772358131003L90.13846153846154,128.44920731272828L90.55384615384615,127.94589588432513L90.96923076923078,131.54449029475154L91.38461538461539,129.2476230768698L91.80000000000001,129.88278940007274L92.21538461538461,127.94657261509929L92.63076923076923,128.83388988329253L93.04615384615384,129.53071785997383L93.46153846153845,128.70433327596143L93.87692307692308,129.6586252344097L94.29230769230769,130.11219714173978L94.70769230769231,131.29265729591398L95.12307692307692,129.86308321680372L95.53846153846155,131.28384348498793L95.95384615384616,129.03240549539296L96.36923076923077,129.01138746094753L96.78461538461538,130.52844974984862L97.2,129.66245099338101L97.61538461538461,130.61683077766097L98.03076923076922,131.11672120199302L98.44615384615385,133.04548635682693L98.86153846153846,133.42107247276448L99.27692307692308,133.41251270529284L99.6923076923077,133.3813191253757L100.10769230769232,131.29731809674533L100.52307692307691,130.11601036144586L100.93846153846154,129.99340353253447L101.35384615384615,129.2905495400209L101.76923076923077,131.12867949292715L102.18461538461538,134.4155672343048L102.6,132.48767903211197L103.01538461538462,133.75571323784987L103.43076923076923,133.72417616701338L103.84615384615385,136.53887890350103L104.26153846153846,134.53380087432512L104.67692307692307,134.46533807567667L105.09230769230768,134.16828744073658L105.50769230769231,136.26987674889446L105.92307692307692,135.59931744797166L106.33846153846154,137.05699169713864L106.75384615384615,138.74874786718314L107.16923076923078,137.13181440258003L107.58461538461539,137.69429802805348L108,140.00916033111673L108.41538461538461,139.7499580932176L108.83076923076922,138.45091530746876L109.24615384615385,137.6952214274467L109.66153846153846,138.97718547965385L110.07692307692308,136.7090865363158L110.49230769230769,135.929262300815L110.90769230769232,136.44986518514844L111.32307692307693,134.96423328615975L111.73846153846155,134.67535008387026L112.15384615384616,134.5055401889762L112.56923076923076,135.87166279783625L112.98461538461538,135.456327197581L113.39999999999999,135.25958558689862L113.81538461538462,134.90174293730226L114.23076923076923,136.8117231329284L114.64615384615385,135.7585334997625L115.06153846153846,139.81703852102996L115.47692307692309,141.59214572605467L115.8923076923077,139.8260941420243L116.30769230769232,140.20141059379668L116.72307692307692,138.67948422112175L117.13846153846153,140.62668506563062L117.55384615384615,140.77513559020036L117.96923076923076,138.4722728230119L118.38461538461539,140.98082908936203L118.8,140.8273234416624L119.21538461538462,141.0617693565665L119.63076923076923,141.1490138189267L120.04615384615386,141.32615477538687L120.46153846153847,140.90741329774139L120.87692307692306,143.1983381279324L121.29230769230769,141.77860370196365L121.7076923076923,141.23274162284108L122.12307692307692,143.21499176115702L122.53846153846153,143.28188927971254L122.95384615384616,141.4174810183927L123.36923076923077,141.13564635240127L123.78461538461539,139.7526675347492L124.2,140.54837792472935L124.61538461538463,141.5166445628566L125.03076923076922,141.89835493031882L125.44615384615385,141.68093483711817L125.86153846153846,142.21748933886283L126.27692307692307,141.1122216262772L126.6923076923077,143.66569489430606L127.1076923076923,144.13923253625674L127.52307692307693,144.4132602275896L127.93846153846154,142.8598123483559L128.35384615384615,142.77218368805433L128.76923076923077,142.3886141164246L129.18461538461537,142.70671741337054L129.6,141.55090370436608L130.01538461538462,141.10478799540724L130.43076923076922,142.09281567478843L130.84615384615384,144.3540332617981L131.26153846153846,144.58068147313168L131.6769230769231,142.58621191763643L132.09230769230768,141.9219772282103L132.5076923076923,140.43790200505117L132.92307692307693,142.66164004807248L133.33846153846153,143.65465275232768L133.75384615384615,144.15617787583193L134.16923076923078,144.25043333080717L134.58461538461538,145.01024100957656L135,145.89293157465372L135.4153846153846,146.11816068949796L135.83076923076922,147.33378145811042L136.24615384615385,145.3623046321307L136.66153846153847,143.95848467892318L137.07692307692307,143.51464798328203L137.4923076923077,142.98497033219067L137.90769230769232,143.30742395856166L138.32307692307694,142.65928380954125L138.73846153846154,144.12942057258695L139.15384615384613,146.5015177517464L139.56923076923078,146.46010073310896L139.98461538461538,146.99440361477048L140.4,146.18650734378807L140.8153846153846,146.4608206189957L141.23076923076923,147.6421870965901L141.64615384615385,146.00062559776694L142.06153846153848,146.28300079174875L142.47692307692307,146.04603317360127L142.8923076923077,146.44147529425882L143.30769230769232,146.31786276347577L143.72307692307692,147.21450829203033L144.13846153846154,147.4666628658345L144.55384615384614,146.97939130595293L144.96923076923076,147.69246294700218L145.3846153846154,148.26496400214208L145.8,146.00177697212885L146.2153846153846,145.2400861799243L146.63076923076923,144.8517177152727L147.04615384615386,144.62793807957033L147.46153846153845,143.64563328397682L147.87692307692308,145.58244264628746L148.29230769230767,145.33576311879486L148.70769230769233,144.669828009797L149.12307692307692,145.62345889286817L149.53846153846155,148.56091939884948L149.95384615384614,149.26819725474996L150.36923076923077,150.6797830492401L150.7846153846154,148.87249537089244L151.20000000000002,148.6492216036818L151.6153846153846,149.33116724800314L152.0307692307692,149.39658078957896L152.44615384615386,149.24731153385048L152.86153846153846,147.42779432362312L153.27692307692308,149.64940690345514L153.69230769230768,151.38377468215347L154.1076923076923,151.63316958462724L154.52307692307693,151.1806512367316L154.93846153846155,152.21391258225566L155.35384615384615,150.00971295215166L155.76923076923075,150.8223950843671L156.1846153846154,150.57970692409407L156.6,150.84305810335L157.01538461538462,151.85334377579045L157.43076923076922,151.46671387108847L157.84615384615387,150.12439650386258L158.26153846153846,150.57035901408497L158.6769230769231,151.74988344283668L159.09230769230768,150.35399218191537L159.5076923076923,151.75494885353777L159.92307692307693,152.77004071459913L160.33846153846153,151.31616618159268L160.75384615384615,151.13173741697037L161.16923076923075,150.6097168971954L161.5846153846154,151.67871385926517L162,151.35610095532311L162.41538461538462,151.95467836026955L162.83076923076922,151.66566741962467L163.24615384615387,152.04924186098245L163.66153846153847,152.57365121601032L164.07692307692307,153.30511411648877L164.4923076923077,153.3201857966573L164.9076923076923,153.55800488578387L165.32307692307694,154.43084360083333L165.73846153846154,153.99734137739824L166.15384615384616,152.31329592891439L166.56923076923076,152.8834411325153L166.9846153846154,153.00211462814178L167.4,152.21221988571978L167.8153846153846,153.5510270825853L168.23076923076923,153.89467139776582L168.64615384615382,154.76383171503437L169.06153846153848,153.86118599552015L169.47692307692307,153.46176953965008L169.8923076923077,154.9435957586099L170.3076923076923,153.49298739616495L170.72307692307695,153.3754611741335L171.13846153846154,153.8128988145782L171.55384615384617,153.8923053703887L171.96923076923076,152.88087186758946L172.38461538461536,152.68301613299593L172.8,155.31611727432744L173.2153846153846,154.21898866416265L173.63076923076923,154.36846783461195L174.04615384615383,154.5804918242837L174.46153846153848,155.6182392695072L174.87692307692308,154.46451974319803L175.2923076923077,154.34481429057612L175.7076923076923,154.46249005118221L176.12307692307692,153.5035591883866L176.53846153846155,151.88546699941037L176.95384615384614,154.09854340011657L177.36923076923077,155.79995159283231L177.78461538461536,155.20960603229153L178.20000000000002,155.66663476732862L178.6153846153846,155.8907218497657L179.03076923076924,155.4565231617828L179.44615384615383,154.0229670290087L179.8615384615385,152.05019729996266L180.27692307692308,153.5220236592308L180.69230769230768,151.06402828501243L181.1076923076923,155.91151362548882L181.5230769230769,155.90846675687413L181.93846153846155,154.99936554637318L182.35384615384615,156.42093664113793L182.76923076923077,154.59467396138874L183.18461538461537,156.08967049406988L183.60000000000002,157.41711527297247L184.01538461538462,156.72462925381973L184.43076923076922,154.48231349409082L184.84615384615384,155.1392330445689L185.26153846153846,154.34216532475182L185.6769230769231,152.8976609412458L186.09230769230768,153.32759907457657L186.5076923076923,154.76753263583288L186.9230769230769,155.2756184617828L187.33846153846156,155.74332520949778L187.75384615384615,157.37754046038054L188.16923076923078,158.58625230557794L188.58461538461538,158.26574584370047L189,157.67321385697522L189.41538461538462,157.90924592033605L189.83076923076922,156.08371246228847L190.24615384615385,159.13458798957168L190.66153846153844,158.038766214251L191.0769230769231,156.82154132137202L191.4923076923077,158.22169417097L191.90769230769232,156.42635927095188L192.3230769230769,159.69704668859376L192.73846153846154,159.0981728581995L193.15384615384616,161.02807452171723L193.56923076923076,160.2950946563281L193.98461538461538,157.5565902564967L194.4,158.1085629429383L194.81538461538463,158.29160874947954L195.23076923076923,158.0935016796926L195.64615384615385,160.03007650041806L196.06153846153845,159.9404999698729L196.47692307692307,160.18954592349118L196.8923076923077,160.3392372229322L197.3076923076923,159.44122854665312L197.72307692307692,159.775236066929L198.13846153846154,159.51601522767075L198.55384615384617,159.59570913462156L198.96923076923076,159.19847838479694L199.3846153846154,159.7370548323675L199.8,161.3163666541465L200.21538461538464,160.04326390976817L200.63076923076923,159.82309068189878L201.04615384615383,160.54811502440901L201.46153846153845,159.7994666986744L201.87692307692308,160.98834272079938L202.2923076923077,161.75633679943198L202.7076923076923,162.6614441019777L203.12307692307692,159.6855479015809L203.53846153846155,159.91920872157877L203.95384615384617,160.90049740963786L204.36923076923077,162.36203939397168L204.78461538461536,161.55785341592528L205.2,160.62042693974732L205.6153846153846,159.6649807928536L206.03076923076924,160.67162625923345L206.44615384615383,158.68877501591547L206.86153846153846,160.62759494290887L207.27692307692308,160.26456166071495L207.6923076923077,158.1963432555203L208.1076923076923,158.5496105940482L208.52307692307693,159.64415262083702L208.93846153846155,159.59095699179943L209.35384615384615,160.63864748606133L209.76923076923077,159.75435366909312L210.18461538461537,160.72351011757044L210.6,160.16399161559184L211.01538461538462,159.4749152755453L211.43076923076924,159.03235324832625L211.84615384615384,160.62141212692163L212.26153846153846,159.9196035351712L212.6769230769231,162.51992816403433L213.09230769230768,161.7321370786755L213.5076923076923,162.26407285671942L213.9230769230769,161.98984796589562L214.33846153846156,162.22297346299572L214.75384615384615,160.5669246581613L215.16923076923078,162.01882003619576L215.58461538461538,161.05091375126608L216,162.40259858581354L216.41538461538462,162.34588449908364L216.83076923076922,162.27513568756768L217.24615384615385,161.77962492795595L217.66153846153844,163.8382820847851L218.0769230769231,163.26424870016476L218.4923076923077,163.63352594249565L218.90769230769232,161.01067646810444L219.3230769230769,161.7595469191299L219.73846153846154,161.70363733499357L220.15384615384616,163.1040646609547L220.56923076923078,162.9902363767624L220.98461538461538,164.43044473951375L221.39999999999998,164.1043392843234L221.81538461538463,162.3890428522971L222.23076923076923,161.71929962203106L222.64615384615385,160.29029091014274L223.06153846153845,162.44401376626925L223.4769230769231,163.14240692532988L223.8923076923077,163.99704335046272L224.30769230769232,163.29644533899537L224.72307692307692,163.81369558326224L225.1384615384615,164.20044971768795L225.55384615384617,161.79199517573892L225.96923076923076,160.52712509647884L226.3846153846154,162.5224461196223L226.79999999999998,163.22016126127446L227.21538461538464,164.364882801062L227.63076923076923,165.54936908355046L228.04615384615386,163.64604376956578L228.46153846153845,163.018847875224L228.87692307692308,165.31597762983048L229.2923076923077,164.79017755862125L229.7076923076923,164.76169871754587L230.12307692307692,165.20288516206534L230.53846153846152,165.2992181554757L230.95384615384617,165.83042671568543L231.36923076923077,164.9464016593994L231.7846153846154,165.38421368025405L232.2,165.63235926412568L232.61538461538464,166.45540677431424L233.03076923076924,164.78121763942L233.44615384615383,165.08463757710695L233.86153846153846,164.87655632395789L234.27692307692305,163.63231351139143L234.6923076923077,166.33765010721007L235.1076923076923,166.0090907851486L235.52307692307693,165.95864249725008L235.93846153846152,165.13504160448397L236.35384615384618,164.92698486518046L236.76923076923077,164.81893046915636L237.1846153846154,164.4346618385523L237.6,164.34113628001953L238.0153846153846,165.10716873206044L238.43076923076924,165.18719675256892L238.84615384615384,165.79124954790097L239.26153846153846,166.71222628007155L239.67692307692306,167.59792550161944L240.0923076923077,166.29286187504468L240.5076923076923,166.69831430453434L240.92307692307693,166.47842939568844L241.33846153846153,165.69214713880027L241.75384615384613,165.16854438746304L242.16923076923078,167.95236500086216L242.58461538461538,167.98592197632243L243,166.2453579634518L243.4153846153846,168.11776624221378L243.83076923076925,166.30491207621415L244.24615384615385,167.69868271824734L244.66153846153847,169.09912366595753L245.07692307692307,168.67090402010763L245.4923076923077,168.33078093040666L245.90769230769232,168.55908427298172L246.3230769230769,167.52736986986227L246.73846153846154,167.0908148587255L247.15384615384613,169.11623608275605L247.56923076923078,169.47956548864755L247.98461538461538,170.41594889008675L248.4,168.83435752075533L248.8153846153846,168.60778465777807L249.23076923076925,167.57843917248934L249.64615384615385,165.7430089428442L250.06153846153845,166.69718254189723L250.47692307692307,166.82743438382093L250.8923076923077,166.76415807752306L251.30769230769232,165.8869278741807L251.72307692307692,168.74050013095686L252.13846153846154,168.90825659151176" style="fill: none;" fill="none"></path></g></g></g></g><g opacity="0.2"><g><g><g><path stroke="rgb(255, 112, 67)" stroke-width="2px" d="M29.907692307692308,-3.5817544844725546L30.323076923076922,1.5398291002235L30.73846153846154,12.644413779864855L31.153846153846157,13.464623904166155L31.569230769230767,16.216801111250124L31.984615384615385,22.11568419568038L32.4,20.952903336198617L32.815384615384616,26.198805025701127L33.23076923076923,29.306702702681353L33.646153846153844,34.84951734373401L34.06153846153846,28.79085948818831L34.47692307692308,38.066239148404264L34.892307692307696,48.308820257196224L35.30769230769231,47.27226219947142L35.723076923076924,41.77219335344207L36.138461538461534,50.82349640607008L36.55384615384615,51.38393516935566L36.96923076923077,54.10351275555636L37.38461538461539,56.90385681821501L37.800000000000004,53.26808337004495L38.215384615384615,64.10284208649925L38.63076923076923,57.541509065570125L39.04615384615385,53.83604934916368L39.46153846153847,60.884819959872424L39.87692307692308,62.51826242445452L40.29230769230769,63.24766978452035L40.707692307692305,67.54314601012611L41.12307692307692,68.35489488451277L41.53846153846154,64.17119140399156L41.95384615384615,65.24038571138712L42.36923076923077,70.23950094504593L42.784615384615385,75.66101935626163L43.2,64.96121940738523L43.61538461538462,74.79692794452423L44.03076923076923,81.26727505728036L44.44615384615384,77.13012676568341L44.86153846153846,79.80320410614111L45.276923076923076,85.5471291050134L45.69230769230769,73.62987983129764L46.107692307692304,78.15192342204197L46.52307692307692,79.05746030684614L46.93846153846154,80.62044729865416L47.353846153846156,81.942581698195L47.769230769230774,89.12206213713057L48.184615384615384,86.99913087066834L48.6,88.23088373703004L49.01538461538461,87.11042744151526L49.43076923076923,92.66688630591511L49.84615384615385,88.8394527271028L50.26153846153846,86.45499191782439L50.676923076923075,90.55620736887472L51.09230769230769,94.24981767252193L51.50769230769231,88.36086098950668L51.92307692307693,87.761467510705L52.33846153846154,94.55409301036143L52.753846153846155,92.56756734858372L53.16923076923077,98.5038301106672L53.58461538461539,97.05684648890102L54,91.97542636970888L54.41538461538461,89.31925321468671L54.83076923076923,94.77236395512917L55.246153846153845,87.7818148021664L55.66153846153846,102.45389687006052L56.07692307692308,101.43371188035235L56.49230769230769,97.48630070805343L56.90769230769231,98.1012431071528L57.323076923076925,92.69296600262169L57.73846153846154,101.20384792433795L58.15384615384616,102.75844692380633L58.569230769230764,100.77424719003548L58.98461538461538,99.23364038739562L59.4,95.92373494730177L59.815384615384616,106.13591416246103L60.23076923076923,99.64181328100517L60.646153846153844,102.82778521856139L61.06153846153846,111.93547828955991L61.47692307692308,105.21587227780321L61.892307692307696,108.29833126185827L62.307692307692314,109.10295583707436L62.723076923076924,107.87721009186419L63.138461538461534,105.52311454743096L63.55384615384615,112.03426612947241L63.96923076923077,106.33999145206894L64.38461538461539,105.26043119780824L64.8,107.65470852213912L65.21538461538461,109.28102668755068L65.63076923076923,109.44466579574832L66.04615384615384,110.39199612710058L66.46153846153847,113.02789524823633L66.87692307692308,105.45518646099504L67.29230769230769,109.3376914218275L67.7076923076923,108.88151650218708L68.12307692307692,114.97885435734256L68.53846153846153,113.88698683047873L68.95384615384616,112.73056106562986L69.36923076923077,114.25942834187299L69.78461538461539,110.6823342112928L70.2,115.96665949889253L70.61538461538461,114.75677401867385L71.03076923076924,106.63512790742486L71.44615384615385,113.25731965880065L71.86153846153846,119.90414426977645L72.27692307692307,116.66760629106366L72.6923076923077,114.50081205155907L73.1076923076923,116.11348599362343L73.52307692307693,119.70001203698727L73.93846153846154,115.40112933414316L74.35384615384616,116.3177830559564L74.76923076923077,115.8832191209464L75.18461538461538,113.66743387814817L75.60000000000001,118.09120243200516L76.0153846153846,117.74002393176004L76.43076923076923,123.94861257177804L76.84615384615384,121.3887090275271L77.26153846153846,118.77308394027773L77.67692307692307,117.05189721521715L78.0923076923077,112.5724895331336L78.50769230769231,126.14685262535932L78.92307692307693,123.2574822946594L79.33846153846154,121.73791873044361L79.75384615384615,125.85693577222347L80.16923076923077,120.3043137733152L80.58461538461538,119.2523716248365L81,129.99516461305194L81.41538461538461,122.65154142009044L81.83076923076923,121.2327619647064L82.24615384615385,117.88135610836457L82.66153846153847,121.95300297069802L83.07692307692308,122.36737528659353L83.4923076923077,123.84997124701559L83.9076923076923,121.37076092164757L84.32307692307691,130.0047796697731L84.73846153846154,122.50580463178794L85.15384615384615,119.36621389641532L85.56923076923077,126.83071208815738L85.98461538461538,128.0610089602156L86.4,124.35749056954714L86.81538461538462,123.22767561882374L87.23076923076924,130.04206777545755L87.64615384615385,122.74132773547254L88.06153846153846,125.95132815763486L88.47692307692307,129.40303279137396L88.89230769230768,129.59735766630752L89.3076923076923,121.02613897436663L89.72307692307692,130.90814629891733L90.13846153846154,129.86143290985558L90.55384615384615,127.19092874172043L90.96923076923078,136.94238191039122L91.38461538461539,125.80232225004715L91.80000000000001,130.83553888487708L92.21538461538461,125.04224743763916L92.63076923076923,130.16486578558238L93.04615384615384,130.57595982499578L93.46153846153845,127.46475639994283L93.87692307692308,131.09006317208213L94.29230769230769,130.79255500273496L94.70769230769231,133.0633475271752L95.12307692307692,127.71872209813834L95.53846153846155,133.4149838872642L95.95384615384616,125.65524851100054L96.36923076923077,128.97986040927935L96.78461538461538,132.80404318320024L97.2,128.36345285867964L97.61538461538461,132.04840045408088L98.03076923076922,131.86655683849114L98.44615384615385,135.93863408907782L98.86153846153846,133.98445164667083L99.27692307692308,133.39967305408533L99.6923076923077,133.33452875550012L100.10769230769232,128.17131655379976L100.52307692307691,128.3440487584966L100.93846153846154,129.80949328916745L101.35384615384615,128.2362685512506L101.76923076923077,133.8858744222865L102.18461538461538,139.3458988463713L102.6,129.59584672882275L103.01538461538462,135.65776454645675L103.43076923076923,133.6768705607586L103.84615384615385,140.7609330082325L104.26153846153846,131.52618383056125L104.67692307692307,134.36264387770402L105.09230769230768,133.72271148832644L105.50769230769231,139.4222607111313L105.92307692307692,134.59347849658744L106.33846153846154,139.24350307088918L106.75384615384615,141.28638212224988L107.16923076923078,134.70641420567537L107.58461538461539,138.53802346626375L108,143.4814537857116L108.41538461538461,139.36115473636892L108.83076923076922,136.50235112884548L109.24615384615385,136.56168060741362L109.66153846153846,140.9001315579646L110.07692307692308,133.30693812130875L110.49230769230769,134.75952594756382L110.90769230769232,137.2307695116486L111.32307692307693,132.73578543767672L111.73846153846155,134.242025280436L112.15384615384616,134.25082534663508L112.56923076923076,137.92084671112633L112.98461538461538,134.83332379719815L113.39999999999999,134.96447317087507L113.81538461538462,134.36497896290774L114.23076923076923,139.67669342636754L114.64615384615385,134.17874905001372L115.06153846153846,145.9047960529311L115.47692307692309,144.25480653359168L115.8923076923077,137.17701676597872L116.30769230769232,140.7643852714553L116.72307692307692,136.39659466210935L117.13846153846153,143.54748633239393L117.55384615384615,140.99781137705497L117.96923076923076,135.01797867222922L118.38461538461539,144.74366348888725L118.8,140.59706497011294L119.21538461538462,141.41343822892264L119.63076923076923,141.27988051246697L120.04615384615386,141.59186621007717L120.46153846153847,140.27930108127313L120.87692307692306,146.63472537321894L121.29230769230769,139.64900206301053L121.7076923076923,140.41394850415722L122.12307692307692,146.188366968631L122.53846153846153,143.38223555754587L122.95384615384616,138.62086862641283L123.36923076923077,140.71289435341413L123.78461538461539,137.6781993082712L124.2,141.74194350969952L124.61538461538463,142.96904452004756L125.03076923076922,142.4709204815121L125.44615384615385,141.3548046973172L125.86153846153846,143.0223210914798L126.27692307692307,139.45432005739877L126.6923076923077,147.49590479634935L127.1076923076923,144.8495389991828L127.52307692307693,144.82430176458894L127.93846153846154,140.52964052950523L128.35384615384615,142.64074069760198L128.76923076923077,141.81325975898008L129.18461538461537,143.18387235878942L129.6,139.81718314085933L130.01538461538462,140.43561443196896L130.43076923076922,143.57485719386023L130.84615384615384,147.7458596423126L131.26153846153846,144.92065379013204L131.6769230769231,139.59450758439363L132.09230769230768,140.92562519407107L132.5076923076923,138.21178917031244L132.92307692307693,145.9972471126045L133.33846153846153,145.1441718087105L133.75384615384615,144.90846556108835L134.16923076923078,144.3918165132701L134.58461538461538,146.14995252773062L135,147.21696742226942L135.4153846153846,146.45600436176431L135.83076923076922,149.15721261102914L136.24615384615385,142.4050893931611L136.66153846153847,141.85275474911197L137.07692307692307,142.84889293982027L137.4923076923077,142.19045385555364L137.90769230769232,143.79110439811808L138.32307692307694,141.68707358601063L138.73846153846154,146.3346257171555L139.15384615384613,150.05966352048563L139.56923076923078,146.39797520515276L139.98461538461538,147.79585793726275L140.4,144.97466293731446L140.8153846153846,146.87229053180718L141.23076923076923,149.41423681298167L141.64615384615385,143.53828334953224L142.06153846153848,146.7065635827215L142.47692307692307,145.69058174638002L142.8923076923077,147.03463847524512L143.30769230769232,146.13244396730119L143.72307692307692,148.55947658486224L144.13846153846154,147.8448947265408L144.55384615384614,146.24848396613055L144.96923076923076,148.76207040857602L145.3846153846154,149.12371558485194L145.8,142.60699642710907L146.2153846153846,144.0975499916175L146.63076923076923,144.2691650182953L147.04615384615386,144.29226862601678L147.46153846153845,142.17217609058653L147.87692307692308,148.48765668975346L148.29230769230767,144.96574382755597L148.70769230769233,143.67092534630018L149.12307692307692,147.053905217475L149.53846153846155,152.9671101578214L149.95384615384614,150.3291140386007L150.36923076923077,152.79716174097524L150.7846153846154,146.1615638533711L151.20000000000002,148.31431095286584L151.6153846153846,150.35408571448514L152.0307692307692,149.49470110194267L152.44615384615386,149.02340765025778L152.86153846153846,144.6985185082821L153.27692307692308,152.98182577320324L153.69230769230768,153.98532635020092L154.1076923076923,152.00726193833788L154.52307692307693,150.50187371488818L154.93846153846155,153.76380460054173L155.35384615384615,146.70341350699567L155.76923076923075,152.04141828269024L156.1846153846154,150.21567468368448L156.6,151.23808487223386L157.01538461538462,153.36877228445115L157.43076923076922,150.88676901403556L157.84615384615387,148.11092045302377L158.26153846153846,151.23930277941852L158.6769230769231,153.51917008596422L159.09230769230768,148.2601552905334L159.5076923076923,153.85638386097142L159.92307692307693,154.2926785061912L160.33846153846153,149.135354382083L160.75384615384615,150.85509427003691L161.16923076923075,149.82668611753292L161.5846153846154,153.28220930236986L162,150.87218159941L162.41538461538462,152.85254446768926L162.83076923076922,151.23215100865735L163.24615384615387,152.6246035230191L163.66153846153847,153.36026524855214L164.07692307692307,154.40230846720644L164.4923076923077,153.34279331691022L164.9076923076923,153.91473351947369L165.32307692307694,155.74010167340748L165.73846153846154,153.34708804224567L166.15384615384616,149.78722775618857L166.56923076923076,153.73865893791663L166.9846153846154,153.18012487158154L167.4,151.02737777208677L167.8153846153846,155.5592378778836L168.23076923076923,154.41013787053654L168.64615384615382,156.06757219093723L169.06153846153848,152.50721741624875L169.47692307692307,152.86264485584496L169.8923076923077,157.16633508704965L170.3076923076923,151.31707485249757L170.72307692307695,153.19917184108635L171.13846153846154,154.4690552752452L171.55384615384617,154.0114152041044L171.96923076923076,151.36372161339062L172.38461538461536,152.38623253110563L172.8,159.26576898632467L173.2153846153846,152.57329574891548L173.63076923076923,154.59268659028587L174.04615384615383,154.89852780879139L174.46153846153848,157.17486043734243L174.87692307692308,152.73394045373425L175.2923076923077,154.16525611164334L175.7076923076923,154.63900369209134L176.12307692307692,152.06516289419315L176.53846153846155,149.45832871594595L176.95384615384614,157.41815800117587L177.36923076923077,158.35206388190596L177.78461538461536,154.3240876914804L178.20000000000002,156.35217786988426L178.6153846153846,156.22685247342127L179.03076923076924,154.8052251298084L179.44615384615383,151.87263282984753L179.8615384615385,149.09104270639364L180.27692307692308,155.72976319813299L180.69230769230768,147.3770352236849L181.1076923076923,163.1827416362034L181.5230769230769,155.90389645395206L181.93846153846155,153.63571373062183L182.35384615384615,158.553293283285L182.76923076923077,151.85527994176502L183.18461538461537,158.33216529309155L183.60000000000002,159.40828244132638L184.01538461538462,155.68590022509065L184.43076923076922,151.11883985449742L184.84615384615384,156.12461237028603L185.26153846153846,153.14656374502619L185.6769230769231,150.73090436598676L186.09230769230768,153.97250627457268L186.5076923076923,156.92743297771733L186.9230769230769,156.0377472007078L187.33846153846156,156.44488533107022L187.75384615384615,159.82886333670467L188.16923076923078,160.39932007337404L188.58461538461538,157.78498615088432L189,156.78441587688738L189.41538461538462,158.26329401537726L189.83076923076922,153.34541227521711L190.24615384615385,163.71090128049644L190.66153846153844,156.3950335512701L191.0769230769231,154.9957039820535L191.4923076923077,160.32192344536696L191.90769230769232,153.73335692092468L192.3230769230769,164.60307781505657L192.73846153846154,158.19986211260806L193.15384615384616,163.92292701699384L193.56923076923076,159.19562485824443L193.98461538461538,153.44883365674954L194.4,158.93652197260073L194.81538461538463,158.5661774592914L195.23076923076923,157.7963410750122L195.64615384615385,162.93493873150632L196.06153846153845,159.80613517405519L196.47692307692307,160.56311485391862L196.8923076923077,160.5637741720938L197.3076923076923,158.09421553223447L197.72307692307692,160.2762473473429L198.13846153846154,159.12718396878336L198.55384615384617,159.7152499950478L198.96923076923076,158.60263226006L199.3846153846154,160.54491950372338L199.8,163.68533438681496L200.21538461538464,158.1336097932007L200.63076923076923,159.49283084009465L201.04615384615383,161.6356515381744L201.46153846153845,158.67649421007243L201.87692307692308,162.77165675398686L202.2923076923077,162.90832791738083L202.7076923076923,164.0191050557963L203.12307692307692,155.22170360098568L203.53846153846155,160.2696999515756L203.95384615384617,162.37243044172646L204.36923076923077,164.55435237047237L204.78461538461536,160.3515744488557L205.2,159.2142872254804L205.6153846153846,158.23181157251304L206.03076923076924,162.18159445880318L206.44615384615383,155.7144981509385L206.86153846153846,163.535824833399L207.27692307692308,159.72001173742402L207.6923076923077,155.09401564772836L208.1076923076923,159.07951160184004L208.52307692307693,161.28596566102027L208.93846153846155,159.51116354824302L209.35384615384615,162.21018322745417L209.76923076923077,158.4279129436408L210.18461538461537,162.17724479028647L210.6,159.32471386262398L211.01538461538462,158.44130076547543L211.43076923076924,158.36851020749762L211.84615384615384,163.00500044481467L212.26153846153846,158.86689064754563L212.6769230769231,166.42041510732898L213.09230769230768,160.55045045063727L213.5076923076923,163.06197652378535L213.9230769230769,161.57851062965995L214.33846153846156,162.57266170864588L214.75384615384615,158.08285145090971L215.16923076923078,164.1966631032475L215.58461538461538,159.5990543238715L216,164.43012583763468L216.41538461538462,162.26081336898886L216.83076923076922,162.16901247029375L217.24615384615385,161.03635878853837L217.66153846153844,166.92626782002884L218.0769230769231,162.40319862323426L218.4923076923077,164.18744180599202L218.90769230769232,157.07640225651753L219.3230769230769,162.88285259566814L219.73846153846154,161.61977295878913L220.15384615384616,165.2047056498963L220.56923076923078,162.81949395047397L220.98461538461538,166.5907572836408L221.39999999999998,163.61518110153784L221.81538461538463,159.81609820425768L222.23076923076923,160.71468477663197L222.64615384615385,158.14677784231026L223.06153846153845,165.674598050459L223.4769230769231,164.1899966639208L223.8923076923077,165.278997988162L224.30769230769232,162.24554832179436L224.72307692307692,164.58957094966254L225.1384615384615,164.7805809193265L225.55384615384617,158.17931336281538L225.96923076923076,158.62981997758874L226.3846153846154,165.51542765433746L226.79999999999998,164.2667339737527L227.21538461538464,166.0819651107433L227.63076923076923,167.32609850728315L228.04615384615386,160.7910557985888L228.46153846153845,162.07805403371134L228.87692307692308,168.7616722617402L229.2923076923077,164.00147745180746L229.7076923076923,164.71898045593278L230.12307692307692,165.86466482884458L230.53846153846152,165.4437176455912L230.95384615384617,166.62723955600006L231.36923076923077,163.62036407497038L231.7846153846154,166.04093171153607L232.2,166.0045776399331L232.61538461538464,167.68997803959712L233.03076923076924,162.26993393707866L233.44615384615383,165.53976748363738L233.86153846153846,164.5644344442343L234.27692307692305,161.76594929254173L234.6923076923077,170.39565500093806L235.1076923076923,165.51625180205642L235.52307692307693,165.88297006540233L235.93846153846152,163.89964026533482L236.35384615384618,164.61489975622519L236.76923076923077,164.65684887512018L237.1846153846154,163.85825889264623L237.6,164.2008479422204L238.0153846153846,166.2562174101218L238.43076923076924,165.30723878333166L238.84615384615384,166.69732874089905L239.26153846153846,168.0936913783274L239.67692307692306,168.92647433394126L240.0923076923077,164.33526643518255L240.5076923076923,167.30649294876883L240.92307692307693,166.14860203241955L241.33846153846153,164.5127237534681L241.75384615384613,164.38314026045717L242.16923076923078,172.12809592096085L242.58461538461538,168.03625743951287L243,163.63451194414586L243.4153846153846,170.92637866035673L243.83076923076925,163.58563082721474L244.24615384615385,169.78933868129712L244.66153846153847,171.1997850875228L245.07692307692307,168.0285745513328L245.4923076923077,167.82059629585518L245.90769230769232,168.90153928684433L246.3230769230769,165.9797982651831L246.73846153846154,166.4359823420204L247.15384615384613,172.15436791880185L247.56923076923078,170.02455959748477L247.98461538461538,171.8205239922455L248.4,166.46197046675823L248.8153846153846,168.26792536331212L249.23076923076925,166.0344209445563L249.64615384615385,162.98986359837647L250.06153846153845,168.12844294047682L250.47692307692307,167.0228121467064L250.8923076923077,166.6692436180763L251.30769230769232,164.57108256916723L251.72307692307692,173.0208585161211L252.13846153846154,169.1598912823441" style="fill: none;" fill="none"></path></g></g></g></g></g><g><g opacity="0.104252"><span fill="rgb(0, 0, 0)" stroke="none" stroke-width="1px">Alt + Scroll to Zoom</span></g></g></g><g transform="translate(60, 176)" clip-path="url(#clip_1)"><clipPath id="clip_1"><rect width="270" height="23"></rect></clipPath><g><g><line x1="0" y1="0" x2="0" y2="5" style="visibility: inherit;" fill="rgb(0, 0, 0)" stroke="rgb(204, 204, 204)" stroke-width="1px"></line><line x1="20.76923076923077" y1="0" x2="20.76923076923077" y2="5" style="visibility: inherit;" fill="rgb(0, 0, 0)" stroke="rgb(204, 204, 204)" stroke-width="1px"></line><line x1="41.53846153846154" y1="0" x2="41.53846153846154" y2="5" style="visibility: inherit;" fill="rgb(0, 0, 0)" stroke="rgb(204, 204, 204)" stroke-width="1px"></line><line x1="62.307692307692314" y1="0" x2="62.307692307692314" y2="5" style="visibility: inherit;" fill="rgb(0, 0, 0)" stroke="rgb(204, 204, 204)" stroke-width="1px"></line><line x1="83.07692307692308" y1="0" x2="83.07692307692308" y2="5" style="visibility: inherit;" fill="rgb(0, 0, 0)" stroke="rgb(204, 204, 204)" stroke-width="1px"></line><line x1="103.84615384615385" y1="0" x2="103.84615384615385" y2="5" style="visibility: inherit;" fill="rgb(0, 0, 0)" stroke="rgb(204, 204, 204)" stroke-width="1px"></line><line x1="124.61538461538463" y1="0" x2="124.61538461538463" y2="5" style="visibility: inherit;" fill="rgb(0, 0, 0)" stroke="rgb(204, 204, 204)" stroke-width="1px"></line><line x1="145.3846153846154" y1="0" x2="145.3846153846154" y2="5" style="visibility: inherit;" fill="rgb(0, 0, 0)" stroke="rgb(204, 204, 204)" stroke-width="1px"></line><line x1="166.15384615384616" y1="0" x2="166.15384615384616" y2="5" style="visibility: inherit;" fill="rgb(0, 0, 0)" stroke="rgb(204, 204, 204)" stroke-width="1px"></line><line x1="186.9230769230769" y1="0" x2="186.9230769230769" y2="5" style="visibility: inherit;" fill="rgb(0, 0, 0)" stroke="rgb(204, 204, 204)" stroke-width="1px"></line><line x1="207.6923076923077" y1="0" x2="207.6923076923077" y2="5" style="visibility: inherit;" fill="rgb(0, 0, 0)" stroke="rgb(204, 204, 204)" stroke-width="1px"></line><line x1="228.46153846153845" y1="0" x2="228.46153846153845" y2="5" style="visibility: inherit;" fill="rgb(0, 0, 0)" stroke="rgb(204, 204, 204)" stroke-width="1px"></line><line x1="249.23076923076925" y1="0" x2="249.23076923076925" y2="5" style="visibility: inherit;" fill="rgb(0, 0, 0)" stroke="rgb(204, 204, 204)" stroke-width="1px"></line><line x1="270" y1="0" x2="270" y2="5" style="visibility: inherit;" fill="rgb(0, 0, 0)" stroke="rgb(204, 204, 204)" stroke-width="1px"></line></g><g transform="translate(0, 8)"><text x="0" y="0" dx="0em" dy="0.95em" style="text-anchor: middle; visibility: hidden; font-family: Roboto, sans-serif; font-size: 12px; font-weight: 200;" fill="rgb(255, 255, 255)" stroke="none" stroke-width="1px">-50</text><text x="20.76923076923077" y="0" dx="0em" dy="0.95em" style="text-anchor: middle; visibility: inherit; font-family: Roboto, sans-serif; font-size: 12px; font-weight: 200;" fill="rgb(255, 255, 255)" stroke="none" stroke-width="1px">0</text><text x="41.53846153846154" y="0" dx="0em" dy="0.95em" style="text-anchor: middle; visibility: hidden; font-family: Roboto, sans-serif; font-size: 12px; font-weight: 200;" fill="rgb(255, 255, 255)" stroke="none" stroke-width="1px">50</text><text x="62.307692307692314" y="0" dx="0em" dy="0.95em" style="text-anchor: middle; visibility: inherit; font-family: Roboto, sans-serif; font-size: 12px; font-weight: 200;" fill="rgb(255, 255, 255)" stroke="none" stroke-width="1px">100</text><text x="83.07692307692308" y="0" dx="0em" dy="0.95em" style="text-anchor: middle; visibility: hidden; font-family: Roboto, sans-serif; font-size: 12px; font-weight: 200;" fill="rgb(255, 255, 255)" stroke="none" stroke-width="1px">150</text><text x="103.84615384615385" y="0" dx="0em" dy="0.95em" style="text-anchor: middle; visibility: inherit; font-family: Roboto, sans-serif; font-size: 12px; font-weight: 200;" fill="rgb(255, 255, 255)" stroke="none" stroke-width="1px">200</text><text x="124.61538461538463" y="0" dx="0em" dy="0.95em" style="text-anchor: middle; visibility: hidden; font-family: Roboto, sans-serif; font-size: 12px; font-weight: 200;" fill="rgb(255, 255, 255)" stroke="none" stroke-width="1px">250</text><text x="145.3846153846154" y="0" dx="0em" dy="0.95em" style="text-anchor: middle; visibility: inherit; font-family: Roboto, sans-serif; font-size: 12px; font-weight: 200;" fill="rgb(255, 255, 255)" stroke="none" stroke-width="1px">300</text><text x="166.15384615384616" y="0" dx="0em" dy="0.95em" style="text-anchor: middle; visibility: hidden; font-family: Roboto, sans-serif; font-size: 12px; font-weight: 200;" fill="rgb(255, 255, 255)" stroke="none" stroke-width="1px">350</text><text x="186.9230769230769" y="0" dx="0em" dy="0.95em" style="text-anchor: middle; visibility: inherit; font-family: Roboto, sans-serif; font-size: 12px; font-weight: 200;" fill="rgb(255, 255, 255)" stroke="none" stroke-width="1px">400</text><text x="207.6923076923077" y="0" dx="0em" dy="0.95em" style="text-anchor: middle; visibility: hidden; font-family: Roboto, sans-serif; font-size: 12px; font-weight: 200;" fill="rgb(255, 255, 255)" stroke="none" stroke-width="1px">450</text><text x="228.46153846153845" y="0" dx="0em" dy="0.95em" style="text-anchor: middle; visibility: inherit; font-family: Roboto, sans-serif; font-size: 12px; font-weight: 200;" fill="rgb(255, 255, 255)" stroke="none" stroke-width="1px">500</text><text x="249.23076923076925" y="0" dx="0em" dy="0.95em" style="text-anchor: middle; visibility: hidden; font-family: Roboto, sans-serif; font-size: 12px; font-weight: 200;" fill="rgb(255, 255, 255)" stroke="none" stroke-width="1px">550</text><text x="270" y="0" dx="0em" dy="0.95em" style="text-anchor: middle; visibility: hidden; font-family: Roboto, sans-serif; font-size: 12px; font-weight: 200;" fill="rgb(255, 255, 255)" stroke="none" stroke-width="1px">600</text></g><line x1="0" y1="0" x2="270" y2="0" fill="rgb(0, 0, 0)" stroke="rgb(204, 204, 204)" stroke-width="1px"></line></g></g></g></g></svg>